<?xml version="1.0" encoding="UTF-8"?>
<!-- Generator: visioncortex VTracer 0.6.3 -->
<svg version="1.1" xmlns="http://www.w3.org/2000/svg" width="1280" height="407">
<path d="M0 0 C1.58 -0.01 1.58 -0.01 3.2 -0.01 C8.57 -0 13.71 0.18 19 1.12 C19 1.79 19 2.45 19 3.12 C19.99 3.22 20.98 3.32 22 3.42 C29.4 4.23 35.5 5.27 42 9.12 C43.66 9.81 45.32 10.48 47 11.12 C47.66 11.45 48.32 11.79 49 12.12 C49 12.79 49 13.45 49 14.12 C50.98 14.78 52.96 15.45 55 16.12 C56.39 20.92 55.69 25.28 55 30.12 C54.01 30.45 53.02 30.78 52 31.12 C51.3 33.17 51.3 33.17 51 35.56 C50.62 38 50.62 38 50 40.12 C49.01 40.78 48.02 41.45 47 42.12 C46.21 44.08 46.21 44.08 45.81 46.25 C45.54 47.53 45.28 48.81 45 50.12 C44.34 50.12 43.68 50.12 43 50.12 C42.81 50.76 42.61 51.4 42.41 52.06 C42.02 53.3 42.02 53.3 41.62 54.56 C41.37 55.39 41.11 56.21 40.85 57.06 C40 59.12 40 59.12 38 60.12 C37.09 62.24 37.09 62.24 36.38 64.69 C36.11 65.51 35.85 66.34 35.59 67.19 C35.39 67.83 35.2 68.47 35 69.12 C31.75 69.81 31.75 69.81 28 70.12 C27.36 69.64 26.73 69.16 26.07 68.67 C23.55 66.79 22.23 66.74 19.12 66.73 C18.2 66.72 17.28 66.72 16.33 66.71 C15.38 66.73 14.42 66.74 13.44 66.75 C12 66.73 12 66.73 10.53 66.71 C9.61 66.72 8.69 66.72 7.75 66.73 C6.91 66.73 6.07 66.73 5.2 66.74 C2.53 67.21 1.78 68.15 0 70.12 C-0.66 70.12 -1.32 70.12 -2 70.12 C-2.29 71.38 -2.58 72.64 -2.88 73.94 C-3.57 76.98 -4.2 78.43 -6 81.12 C-6.33 83.81 -6.33 83.81 -6.32 86.88 C-6.34 88.06 -6.36 89.24 -6.38 90.46 C-6.39 91.74 -6.4 93.01 -6.41 94.32 C-6.43 95.63 -6.45 96.93 -6.47 98.28 C-6.52 101.75 -6.56 105.21 -6.6 108.68 C-6.64 112.22 -6.69 115.76 -6.74 119.3 C-6.84 126.24 -6.92 133.18 -7 140.12 C-6.05 140.12 -5.11 140.11 -4.13 140.11 C-0.57 140.09 2.99 140.08 6.55 140.07 C8.08 140.07 9.61 140.06 11.15 140.05 C31.84 139.93 31.84 139.93 36 141.12 C38.48 144.85 38.44 147.99 38.62 152.31 C38.66 153.06 38.7 153.81 38.74 154.58 C38.84 156.43 38.92 158.28 39 160.12 C43.42 159.42 44.9 158.33 48 155.12 C49.65 154.42 51.32 153.76 53 153.12 C54.34 152.13 55.67 151.13 57 150.12 C61.42 147.7 66.03 145.89 70.73 144.09 C73.21 143.12 73.21 143.12 76 141.12 C78.11 140.57 80.24 140.07 82.38 139.62 C86.92 138.69 86.92 138.69 91.26 137.1 C94.62 135.9 97.49 135.78 101.05 135.68 C101.73 135.65 102.41 135.63 103.11 135.61 C105.32 135.54 107.54 135.49 109.75 135.44 C110.5 135.42 111.26 135.4 112.04 135.38 C122.12 135.12 132.17 135.07 142.25 135.44 C143.26 135.47 144.27 135.51 145.31 135.54 C150.21 135.77 154.4 136.23 159 138.12 C159 138.46 159 138.78 159 139.12 C160.18 139.27 160.18 139.27 161.38 139.42 C167.93 140.35 172.47 141.54 178 145.12 C179.73 145.87 179.73 145.87 181.5 146.62 C185.21 148.22 188.53 150.07 192 152.12 C192 152.78 192 153.44 192 154.12 C192.73 154.22 193.45 154.31 194.2 154.41 C197.43 155.23 199.17 156.48 201.75 158.56 C202.53 159.18 203.31 159.8 204.11 160.43 C206 162.13 206 162.13 207 164.12 C207.93 164.58 207.93 164.58 208.88 165.04 C211.23 166.24 212.35 167.45 214 169.5 C215.64 171.49 217.24 173.36 219.06 175.19 C221.56 177.69 223.76 180.39 226 183.12 C226.74 183.95 227.49 184.78 228.25 185.62 C230.26 188.5 230.68 190.66 231 194.12 C231.99 194.46 232.98 194.78 234 195.12 C234.84 197.02 234.84 197.02 235.5 199.38 C236.27 202.09 237.01 204.14 238.53 206.54 C240.21 209.5 240.63 211.83 241.06 215.19 C241.57 219 242.28 221.72 244 225.12 C246.31 238.4 246.43 253.75 241 266.12 C240.18 270.1 239.56 274.1 239 278.12 C238.34 278.12 237.68 278.12 237 278.12 C236.82 278.91 236.64 279.69 236.45 280.5 C236.07 282.01 236.07 282.01 235.69 283.56 C235.44 284.57 235.2 285.58 234.95 286.62 C234.48 287.86 234.48 287.86 234 289.12 C233.01 289.45 232.02 289.79 231 290.12 C230.92 291.07 230.84 292.02 230.75 293 C230.5 294.03 230.26 295.06 230 296.12 C228.68 296.81 227.34 297.47 226 298.12 C225.27 300.1 224.6 302.1 224 304.12 C223.01 304.62 223.01 304.62 222 305.12 C221.69 305.79 221.38 306.44 221.06 307.12 C220 309.12 220 309.12 217 310.12 C213.23 313.58 210 317.42 206.75 321.36 C204.93 323.19 203.3 324.02 201 325.12 C200.67 325.79 200.34 326.44 200 327.12 C198.34 328.14 196.68 329.14 195 330.12 C194.34 330.79 193.68 331.44 193 332.12 C190.67 333.14 188.34 334.14 186 335.12 C185.01 335.79 184.02 336.44 183 337.12 C180.68 337.52 178.34 337.86 176 338.12 C176 338.79 176 339.44 176 340.12 C171.2 342.53 166.27 342.74 161 343.12 C161 343.79 161 344.44 161 345.12 C154.32 346.85 148.32 347.38 141.44 347.25 C140.52 347.24 139.61 347.23 138.67 347.22 C136.45 347.2 134.22 347.17 132 347.12 C132 347.45 132 347.79 132 348.12 C129.06 348.15 126.13 348.17 123.19 348.19 C122.35 348.2 121.52 348.2 120.66 348.21 C119.46 348.22 119.46 348.22 118.23 348.22 C117.12 348.23 117.12 348.23 115.99 348.24 C114 348.12 114 348.12 111 347.12 C108.29 347.1 105.59 347.13 102.88 347.19 C88.33 347.34 88.33 347.34 82 343.12 C79.21 342.56 76.42 342.18 73.59 341.79 C70.72 341.05 69.97 340.23 68 338.12 C66.06 337.45 66.06 337.45 64 337.12 C60.66 336.39 59.33 335.66 57 333.12 C55.31 332.41 53.62 331.7 51.92 331.01 C48.58 329.47 45.88 327.41 43 325.12 C43 324.46 43 323.81 43 323.12 C42.28 322.88 41.56 322.63 40.81 322.38 C37.72 321 35.49 319.4 33 317.12 C33 316.46 33 315.81 33 315.12 C32.44 314.93 31.89 314.73 31.31 314.52 C28.09 312.58 26.19 309.8 24 306.81 C23.15 305.67 22.29 304.53 21.44 303.39 C21.03 302.83 20.62 302.28 20.2 301.71 C19.1 300.25 17.93 298.85 16.77 297.45 C14.42 294.36 13.88 291.86 13 288.12 C12.34 288.12 11.68 288.12 11 288.12 C10.73 287.11 10.73 287.11 10.45 286.08 C10.2 285.19 9.95 284.29 9.69 283.38 C9.44 282.49 9.2 281.61 8.95 280.7 C8.16 278.1 8.16 278.1 6.46 276.29 C4.34 273.15 4.26 269.87 3.94 266.19 C3.53 260.87 3.53 260.87 1.98 255.8 C0.79 252.56 0.77 249.96 0.8 246.51 C0.81 245.26 0.82 244.02 0.82 242.73 C0.84 241.44 0.86 240.15 0.88 238.81 C0.88 237.5 0.89 236.19 0.9 234.83 C0.93 231.6 0.96 228.36 1 225.12 C1.66 224.79 2.32 224.47 3 224.12 C3.72 220.61 4.26 217.11 4.77 213.56 C5.47 209.04 6.48 206.02 9 202.12 C9.33 200.47 9.66 198.82 10 197.12 C4.39 197.12 -1.22 197.12 -7 197.12 C-6.99 199.78 -6.99 199.78 -6.98 202.5 C-6.92 219.17 -6.87 235.84 -6.84 252.51 C-6.83 261.09 -6.81 269.66 -6.77 278.23 C-6.74 285.7 -6.72 293.17 -6.72 300.64 C-6.71 304.6 -6.7 308.55 -6.68 312.51 C-6.66 316.23 -6.66 319.95 -6.66 323.68 C-6.66 325.7 -6.64 327.72 -6.63 329.74 C-6.63 330.94 -6.63 332.14 -6.64 333.37 C-6.64 334.42 -6.63 335.46 -6.63 336.54 C-7 339.13 -7 339.13 -8.34 340.96 C-10.97 342.8 -13.32 342.48 -16.49 342.47 C-17.14 342.47 -17.8 342.47 -18.47 342.47 C-20.63 342.46 -22.79 342.44 -24.95 342.42 C-26.45 342.41 -27.94 342.41 -29.44 342.41 C-33.38 342.39 -37.32 342.36 -41.26 342.33 C-45.29 342.3 -49.31 342.29 -53.33 342.27 C-61.22 342.24 -69.11 342.19 -77 342.12 C-77.33 341.13 -77.66 340.14 -78 339.12 C-78.99 339.12 -79.98 339.12 -81 339.12 C-81 292.26 -81 245.4 -81 197.12 C-86.28 197.12 -91.56 197.12 -97 197.12 C-97.01 198.88 -97.01 200.64 -97.02 202.45 C-97.07 218.99 -97.15 235.53 -97.24 252.07 C-97.28 260.57 -97.32 269.08 -97.35 277.58 C-97.37 284.99 -97.4 292.4 -97.45 299.81 C-97.47 303.74 -97.49 307.66 -97.5 311.59 C-97.5 315.28 -97.52 318.98 -97.55 322.67 C-97.57 324.67 -97.57 326.68 -97.56 328.68 C-97.58 329.87 -97.59 331.06 -97.6 332.29 C-97.61 333.33 -97.61 334.36 -97.62 335.43 C-98.06 338.53 -98.81 339.92 -101 342.12 C-103.85 342.63 -103.85 342.63 -107.35 342.63 C-108.66 342.64 -109.97 342.65 -111.33 342.66 C-112.76 342.64 -114.19 342.63 -115.62 342.62 C-117.09 342.62 -118.56 342.62 -120.03 342.63 C-123.11 342.63 -126.18 342.61 -129.26 342.59 C-133.2 342.56 -137.15 342.57 -141.09 342.58 C-144.12 342.59 -147.16 342.58 -150.19 342.57 C-151.64 342.56 -153.1 342.56 -154.55 342.56 C-156.58 342.57 -158.62 342.55 -160.65 342.53 C-161.81 342.52 -162.96 342.52 -164.15 342.51 C-167 342.12 -167 342.12 -168.88 340.82 C-170.77 337.96 -170.31 334.75 -170.19 331.44 C-170.17 330.74 -170.16 330.03 -170.15 329.31 C-170.11 327.58 -170.06 325.85 -170 324.12 C-170.66 324.12 -171.32 324.12 -172 324.12 C-172.33 325.12 -172.66 326.11 -173 327.12 C-173.99 327.45 -174.98 327.79 -176 328.12 C-176.43 328.76 -176.87 329.4 -177.31 330.06 C-179.53 332.77 -181.67 333.24 -185 334.12 C-185 334.79 -185 335.44 -185 336.12 C-186.07 336.56 -187.14 336.99 -188.25 337.44 C-190.47 338.38 -192.09 339.19 -194 340.69 C-196.78 342.68 -199.72 343.23 -203 344.12 C-203.99 344.79 -204.98 345.44 -206 346.12 C-210.38 347.38 -214.79 347.24 -219.31 347.19 C-220.05 347.18 -220.79 347.18 -221.56 347.17 C-223.37 347.16 -225.19 347.14 -227 347.12 C-227 347.45 -227 347.79 -227 348.12 C-229.15 348.15 -231.29 348.17 -233.44 348.19 C-234.63 348.2 -235.83 348.21 -237.06 348.22 C-240 348.12 -240 348.12 -241 347.12 C-243.35 347.1 -245.71 347.13 -248.06 347.19 C-253.71 347.27 -258.62 346.88 -264 345.12 C-264 344.46 -264 343.81 -264 343.12 C-265.12 342.96 -265.12 342.96 -266.27 342.79 C-267.74 342.56 -267.74 342.56 -269.25 342.31 C-270.71 342.09 -270.71 342.09 -272.2 341.86 C-275.16 341.08 -276.66 340.02 -279 338.12 C-280.03 337.8 -281.06 337.46 -282.12 337.12 C-285 336.12 -285 336.12 -287 333.12 C-288.97 332.06 -290.97 331.05 -293 330.12 C-293 329.46 -293 328.81 -293 328.12 C-294.65 327.46 -296.3 326.81 -298 326.12 C-298 325.46 -298 324.81 -298 324.12 C-298.56 323.9 -299.11 323.67 -299.69 323.44 C-304.36 320.79 -307.92 316.47 -311 312.12 C-311 311.13 -311 310.14 -311 309.12 C-311.66 308.8 -312.32 308.46 -313 308.12 C-313.66 307.8 -314.32 307.46 -315 307.12 C-315.12 306.32 -315.25 305.52 -315.38 304.69 C-315.58 303.84 -315.79 303 -316 302.12 C-316.93 301.72 -316.93 301.72 -317.88 301.31 C-320.95 299.59 -321.27 297.26 -322.29 294 C-322.93 291.92 -322.93 291.92 -325 290.12 C-325.57 287.47 -325.74 284.83 -326 282.12 C-326.66 282.12 -327.32 282.12 -328 282.12 C-329.63 277.88 -330.3 274.07 -330.56 269.57 C-330.92 266.93 -330.92 266.93 -332.5 264.01 C-334.33 259.83 -334.42 256.07 -334.36 251.56 C-334.36 250.76 -334.36 249.96 -334.36 249.14 C-334.36 247.47 -334.35 245.79 -334.34 244.12 C-334.31 241.57 -334.32 239.02 -334.32 236.46 C-334.32 234.83 -334.31 233.19 -334.3 231.56 C-334.3 230.8 -334.3 230.05 -334.3 229.27 C-334.24 224.83 -333.59 221.25 -332 217.12 C-331.66 215.49 -331.34 213.84 -331.06 212.19 C-330.23 207.84 -328.84 204.16 -327 200.12 C-326.25 197.74 -325.53 195.35 -324.84 192.95 C-324.57 192.34 -324.29 191.74 -324 191.12 C-323.01 190.79 -322.02 190.47 -321 190.12 C-320.31 188.35 -320.31 188.35 -320 186.25 C-319.29 182.92 -318.66 181.34 -316 179.12 C-315.67 178.47 -315.34 177.81 -315 177.12 C-313.92 174.97 -312.69 173.82 -311 172.12 C-310.48 171.24 -309.97 170.35 -309.44 169.44 C-308.96 168.67 -308.49 167.91 -308 167.12 C-307.34 167.12 -306.68 167.12 -306 167.12 C-305.64 166.26 -305.64 166.26 -305.28 165.39 C-303.73 162.66 -301.92 161 -299.56 158.94 C-298.78 158.24 -298 157.55 -297.19 156.83 C-295 155.13 -295 155.13 -292 154.12 C-290.64 152.81 -289.31 151.48 -288 150.12 C-284.17 146.61 -280.97 145.51 -276 144.12 C-275.54 143.62 -275.08 143.12 -274.61 142.61 C-272.41 140.58 -270.76 140.63 -267.81 140.44 C-266.91 140.37 -266.01 140.31 -265.08 140.24 C-264.05 140.18 -264.05 140.18 -263 140.12 C-263 139.47 -263 138.81 -263 138.12 C-259.04 136.28 -255.75 135.82 -251.4 135.68 C-250.11 135.63 -248.83 135.59 -247.5 135.54 C-246.12 135.51 -244.75 135.47 -243.38 135.44 C-242.34 135.41 -242.34 135.41 -241.28 135.38 C-232.8 135.14 -224.35 135.02 -215.88 135.44 C-215.13 135.47 -214.39 135.51 -213.62 135.54 C-209.73 135.79 -206.53 136.44 -203 138.12 C-203 138.78 -203 139.44 -203 140.12 C-199.7 140.46 -196.4 140.78 -193 141.12 C-193 141.78 -193 142.44 -193 143.12 C-192.3 143.31 -191.6 143.49 -190.88 143.68 C-189.97 143.93 -189.06 144.18 -188.12 144.44 C-187.22 144.68 -186.32 144.92 -185.38 145.18 C-183 146.12 -183 146.12 -181 149.12 C-178.45 150.33 -178.45 150.33 -176 151.12 C-176 151.78 -176 152.44 -176 153.12 C-173.03 154.12 -173.03 154.12 -170 155.12 C-170.02 154.28 -170.05 153.44 -170.07 152.57 C-170.09 151.47 -170.11 150.38 -170.12 149.25 C-170.15 148.16 -170.17 147.07 -170.2 145.95 C-170 143.12 -170 143.12 -168 141.12 C-158.06 139.44 -147.6 139.99 -137.54 140.03 C-135.9 140.03 -134.26 140.03 -132.62 140.03 C-128.35 140.04 -124.08 140.05 -119.8 140.06 C-115.43 140.07 -111.05 140.07 -106.67 140.08 C-98.11 140.09 -89.56 140.1 -81 140.12 C-81 139.5 -81.01 138.87 -81.01 138.23 C-81.06 131.71 -81.09 125.19 -81.11 118.67 C-81.12 116.23 -81.13 113.8 -81.15 111.37 C-81.18 107.87 -81.19 104.37 -81.2 100.87 C-81.21 99.78 -81.22 98.7 -81.23 97.58 C-81.23 92.3 -80.98 88.09 -79 83.12 C-78.61 80.81 -78.61 80.81 -78.47 78.56 C-78.4 77.74 -78.33 76.93 -78.26 76.09 C-78.13 74.4 -78 72.71 -77.88 71.03 C-77.45 66.21 -76.75 63.21 -74 59.12 C-73.38 56.6 -73.01 54.1 -72.62 51.53 C-71.91 48.78 -70.76 47.32 -69 45.12 C-68.04 43.24 -68.04 43.24 -67.31 41.38 C-66.88 40.3 -66.45 39.23 -66 38.12 C-65.34 38.12 -64.68 38.12 -64 38.12 C-63.92 37.18 -63.84 36.23 -63.75 35.25 C-63.38 33.7 -63.38 33.7 -63 32.12 C-61.06 31.06 -61.06 31.06 -59 30.12 C-58.31 28.47 -57.64 26.8 -57 25.12 C-56.01 24.8 -55.02 24.47 -54 24.12 C-53.67 23.47 -53.34 22.8 -53 22.12 C-52 20.12 -52 20.12 -49 19.12 C-48.69 18.47 -48.38 17.8 -48.06 17.12 C-47.71 16.47 -47.36 15.8 -47 15.12 C-45.67 14.76 -44.34 14.43 -43 14.12 C-42.67 13.13 -42.34 12.14 -42 11.12 C-39.4 9.48 -38.14 9.12 -35 9.12 C-35 8.46 -35 7.8 -35 7.12 C-31.43 5.18 -28.08 4.44 -24.12 3.69 C-21.72 3.17 -21.72 3.17 -19 1.12 C-12.72 -0.19 -6.39 -0.02 0 0 Z M52 26.12 C53 28.12 53 28.12 53 28.12 Z M48 37.12 C48 37.78 48 38.45 48 39.12 C47.01 39.62 47.01 39.62 46 40.12 C46.99 40.12 47.98 40.12 49 40.12 C48.67 39.13 48.34 38.15 48 37.12 Z M33 65.12 C32.67 66.11 32.34 67.11 32 68.12 C32.66 68.12 33.32 68.12 34 68.12 C33.67 67.14 33.34 66.14 33 65.12 Z M-1 66.12 C-1.33 66.78 -1.66 67.44 -2 68.12 C-1.34 68.12 -0.68 68.12 0 68.12 C-0.33 67.47 -0.66 66.81 -1 66.12 Z M-6 72.12 C-5 75.12 -5 75.12 -5 75.12 Z M-8 79.12 C-7 81.12 -7 81.12 -7 81.12 Z M-10 91.12 C-9 93.12 -9 93.12 -9 93.12 Z M36 150.12 C36 151.78 36 153.43 36 155.12 C36.33 155.12 36.66 155.12 37 155.12 C37 153.47 37 151.82 37 150.12 C36.67 150.12 36.34 150.12 36 150.12 Z M-226.45 198.06 C-226.96 198.74 -227.47 199.42 -228 200.12 C-230.69 201.25 -233.1 201.61 -236 202.12 C-236.66 201.79 -237.32 201.47 -238 201.12 C-245.75 209.33 -245.75 209.33 -251 219.12 C-251.66 218.8 -252.32 218.47 -253 218.12 C-253 218.78 -253 219.44 -253 220.12 C-253.66 220.45 -254.32 220.78 -255 221.12 C-254.67 221.45 -254.34 221.78 -254 222.12 C-254.21 223.87 -254.42 225.61 -254.67 227.34 C-256.33 238.65 -256.91 250.96 -254 262.12 C-253.02 263.15 -252.02 264.14 -251 265.12 C-250.31 266.32 -249.65 267.53 -249 268.75 C-247.35 272.37 -247.35 272.37 -244 273.12 C-244 273.78 -244 274.44 -244 275.12 C-239.45 279.58 -235.34 281.86 -229 282.12 C-229 282.78 -229 283.44 -229 284.12 C-223.67 286.31 -218.86 286.49 -213.19 286.5 C-211.91 286.54 -211.91 286.54 -210.61 286.57 C-204.17 286.6 -199.68 285.01 -194 282.12 C-193.09 281.8 -192.19 281.48 -191.25 281.15 C-188.3 279.81 -186.31 277.95 -183.94 275.75 C-183.1 274.98 -182.26 274.21 -181.4 273.41 C-180.61 272.66 -179.82 271.9 -179 271.12 C-178.28 270.47 -177.57 269.81 -176.83 269.13 C-174.87 266.98 -173.9 265.12 -172.81 262.44 C-171.07 258.19 -171.07 258.19 -170 257.12 C-169.91 254.68 -169.88 252.26 -169.9 249.81 C-169.9 249.08 -169.91 248.35 -169.91 247.59 C-169.91 245.25 -169.92 242.91 -169.94 240.56 C-169.94 238.98 -169.95 237.39 -169.95 235.81 C-169.96 231.91 -169.98 228.02 -170 224.12 C-171.49 223.63 -171.49 223.63 -173 223.12 C-173.72 221.16 -174.44 219.19 -175.11 217.2 C-176.43 214.11 -178.43 212.23 -181 210.12 C-181.66 210.12 -182.32 210.12 -183 210.12 C-183.25 209.49 -183.5 208.85 -183.75 208.19 C-184.8 205.93 -184.8 205.93 -187.06 205.56 C-187.7 205.42 -188.34 205.27 -189 205.12 C-189.5 203.64 -189.5 203.64 -190 202.12 C-192.22 201.09 -192.22 201.09 -194.88 200.44 C-196.2 200.06 -196.2 200.06 -197.55 199.68 C-200.07 199.02 -200.07 199.02 -203 199.12 C-202.67 198.13 -202.34 197.15 -202 196.12 C-205.58 196.01 -209.17 195.94 -212.75 195.88 C-213.77 195.84 -214.78 195.81 -215.83 195.77 C-221.56 195.52 -221.56 195.52 -226.45 198.06 Z M-100 196.12 C-99 198.12 -99 198.12 -99 198.12 Z M122.06 196.5 C120.68 196.55 120.68 196.55 119.28 196.59 C118.39 196.63 117.51 196.67 116.6 196.71 C115.79 196.74 114.98 196.77 114.14 196.81 C111.71 197.01 111.71 197.01 109 199.12 C104.12 201.17 100.2 201.3 95 201.12 C95 201.78 95 202.44 95 203.12 C96.32 203.12 97.64 203.12 99 203.12 C99 203.78 99 204.44 99 205.12 C98.3 205.31 97.6 205.5 96.88 205.69 C93.44 207.41 91.77 209.48 89.43 212.47 C88 214.12 88 214.12 85 216.12 C84.32 218.46 83.66 220.79 83 223.12 C82.24 223.77 82.24 223.77 81.46 224.42 C78.29 228.12 79.53 234.54 79.55 239.27 C79.56 241.42 79.53 243.57 79.5 245.72 C79.5 247.1 79.5 248.48 79.5 249.86 C79.5 251.11 79.5 252.36 79.5 253.65 C80.09 257.74 81.54 259.85 84 263.12 C84.72 264.77 85.4 266.43 86 268.12 C86.66 268.12 87.32 268.12 88 268.12 C88.23 268.68 88.45 269.24 88.69 269.81 C90.38 272.8 92.49 274.79 95 277.12 C96.11 278.18 96.11 278.18 97.25 279.25 C100.35 281.36 103.24 282.36 106.82 283.41 C109 284.12 109 284.12 110.87 285.15 C114.5 286.81 118.2 286.51 122.12 286.5 C122.98 286.5 123.83 286.5 124.71 286.5 C131.21 286.38 136.24 285.2 142 282.12 C143.66 281.44 145.33 280.77 147 280.12 C147 279.47 147 278.81 147 278.12 C147.72 277.9 148.44 277.67 149.19 277.44 C152.56 275.86 154.56 273.92 157 271.12 C157 270.47 157 269.81 157 269.12 C157.66 269.12 158.32 269.12 159 269.12 C159.45 268.18 159.91 267.23 160.38 266.25 C162 263.12 162 263.12 164 261.12 C166.63 247.99 166.55 235.26 164 222.12 C163.01 220.64 163.01 220.64 162 219.12 C161.34 219.12 160.68 219.12 160 219.12 C159.94 218.57 159.88 218.01 159.81 217.44 C158.65 214.14 156.54 212.5 154 210.12 C153.17 209.28 152.35 208.43 151.5 207.56 C150.67 206.76 149.85 205.95 149 205.12 C147.95 204.04 147.95 204.04 146.88 202.94 C142.57 200.22 137.99 199.79 133 199.12 C133.33 198.13 133.66 197.15 134 196.12 C130.02 196.12 126.04 196.33 122.06 196.5 Z M232 197.12 C231.67 197.78 231.34 198.44 231 199.12 C231.66 199.12 232.32 199.12 233 199.12 C232.67 198.47 232.34 197.81 232 197.12 Z M92 205.12 C93 208.12 93 208.12 93 208.12 Z M-100 206.12 C-100 211.74 -100 217.34 -100 223.12 C-99.67 223.12 -99.34 223.12 -99 223.12 C-99 217.51 -99 211.91 -99 206.12 C-99.33 206.12 -99.66 206.12 -100 206.12 Z M237 207.12 C238 210.12 238 210.12 238 210.12 Z M87 211.12 C87 211.78 87 212.44 87 213.12 C86.01 213.62 86.01 213.62 85 214.12 C85.99 214.12 86.98 214.12 88 214.12 C87.67 213.13 87.34 212.15 87 211.12 Z M82 220.12 C82 220.78 82 221.44 82 222.12 C81.01 222.62 81.01 222.62 80 223.12 C80.99 223.12 81.98 223.12 83 223.12 C82.67 222.13 82.34 221.15 82 220.12 Z M-100 225.12 C-100 227.76 -100 230.41 -100 233.12 C-99.67 233.12 -99.34 233.12 -99 233.12 C-99 230.49 -99 227.84 -99 225.12 C-99.33 225.12 -99.66 225.12 -100 225.12 Z M-100 235.12 C-100 239.41 -100 243.71 -100 248.12 C-99.67 248.12 -99.34 248.12 -99 248.12 C-99 243.84 -99 239.54 -99 235.12 C-99.33 235.12 -99.66 235.12 -100 235.12 Z M77 235.12 C77 238.75 77 242.38 77 246.12 C77.33 246.12 77.66 246.12 78 246.12 C78 242.5 78 238.87 78 235.12 C77.67 235.12 77.34 235.12 77 235.12 Z M-258 236.12 C-257 238.12 -257 238.12 -257 238.12 Z M-258 241.12 C-257 245.12 -257 245.12 -257 245.12 Z M77 247.12 C78 250.12 78 250.12 78 250.12 Z M242 249.12 C243 252.12 243 252.12 243 252.12 Z M242 254.12 C243 257.12 243 257.12 243 257.12 Z M82 262.12 C81.67 263.12 81.34 264.11 81 265.12 C81.66 265.12 82.32 265.12 83 265.12 C82.67 264.13 82.34 263.14 82 262.12 Z M239 263.12 C240 265.12 240 265.12 240 265.12 Z M-100 264.12 C-100 268.75 -100 273.37 -100 278.12 C-99.67 278.12 -99.34 278.12 -99 278.12 C-99 273.5 -99 268.88 -99 264.12 C-99.33 264.12 -99.66 264.12 -100 264.12 Z M234 277.12 C235 280.12 235 280.12 235 280.12 Z M-100 280.12 C-100 287.71 -100 295.31 -100 303.12 C-99.67 303.12 -99.34 303.12 -99 303.12 C-99 295.54 -99 287.94 -99 280.12 C-99.33 280.12 -99.66 280.12 -100 280.12 Z M229 287.12 C230 289.12 230 289.12 230 289.12 Z M227 294.12 C228 296.12 228 296.12 228 296.12 Z M-100 305.12 C-100 308.1 -100 311.06 -100 314.12 C-99.67 314.12 -99.34 314.12 -99 314.12 C-99 311.15 -99 308.19 -99 305.12 C-99.33 305.12 -99.66 305.12 -100 305.12 Z M-100 316.12 C-100 318.44 -100 320.75 -100 323.12 C-99.67 323.12 -99.34 323.12 -99 323.12 C-99 320.81 -99 318.5 -99 316.12 C-99.33 316.12 -99.66 316.12 -100 316.12 Z M-173 322.12 C-173.66 322.79 -174.32 323.44 -175 324.12 C-173.68 323.8 -172.36 323.46 -171 323.12 C-171.66 322.8 -172.32 322.46 -173 322.12 Z M-100 324.12 C-99 326.12 -99 326.12 -99 326.12 Z M-180 327.12 C-180 327.79 -180 328.44 -180 329.12 C-180.99 329.62 -180.99 329.62 -182 330.12 C-181.01 330.12 -180.02 330.12 -179 330.12 C-179.33 329.13 -179.66 328.14 -180 327.12 Z M54 328.12 C53.67 328.79 53.34 329.44 53 330.12 C53.66 330.12 54.32 330.12 55 330.12 C54.67 329.46 54.34 328.81 54 328.12 Z M193 328.12 C192.67 328.79 192.34 329.44 192 330.12 C192.66 330.12 193.32 330.12 194 330.12 C193.67 329.46 193.34 328.81 193 328.12 Z M185 332.12 C186 334.12 186 334.12 186 334.12 Z M63 333.12 C62.34 333.79 61.68 334.44 61 335.12 C61.99 335.12 62.98 335.12 64 335.12 C63.67 334.46 63.34 333.81 63 333.12 Z M174 337.12 C175 339.12 175 339.12 175 339.12 Z M-205 342.12 C-205.66 342.79 -206.32 343.44 -207 344.12 C-206.01 344.12 -205.02 344.12 -204 344.12 C-204.33 343.46 -204.66 342.81 -205 342.12 Z " fill="#FAFBFD" transform="translate(1017,17.875)"/>
<path d="M0 0 C1.33 0.03 1.33 0.03 2.68 0.05 C5.62 0.12 8.56 0.21 11.5 0.31 C12.43 0.33 13.36 0.36 14.33 0.38 C20.01 0.61 23.87 1.6 29 4 C32.39 4.73 32.39 4.73 35.75 5.12 C44.25 6.25 44.25 6.25 47 9 C49.75 9.59 52.49 9.95 55.27 10.34 C58.24 11.06 59.64 12.13 62 14 C64.28 14.91 64.28 14.91 66.62 15.56 C69.56 16.43 70.79 16.79 73 19 C74.96 19.89 74.96 19.89 77.12 20.62 C78.21 21.02 78.21 21.02 79.32 21.41 C79.87 21.61 80.43 21.8 81 22 C81 22.66 81 23.32 81 24 C81.89 24.23 82.77 24.45 83.69 24.69 C87.56 26.22 89.46 27.71 92 31 C92.31 34.31 92.31 34.31 92 37 C91.01 37.33 90.02 37.66 89 38 C89 38.99 89 39.98 89 41 C87.07 45.97 84.68 50.67 82.27 55.42 C80.39 59.23 78.68 63.1 77 67 C76.01 67 75.02 67 74 67 C74.33 67.66 74.66 68.32 75 69 C72.52 75.74 72.52 75.74 70 77 C69.17 79.08 69.17 79.08 68.5 81.5 C67.78 83.97 67.78 83.97 67 86 C66.01 86.5 66.01 86.5 65 87 C64.34 87.99 63.68 88.98 63 90 C61.25 90.88 61.25 90.88 59 91 C56.19 89.75 56.19 89.75 53 88 C51.8 87.5 50.61 87.01 49.38 86.5 C46 85 46 85 44.12 83.5 C41.32 81.52 38.4 80.72 35.12 79.75 C33 79 33 79 30 77 C27.31 76.43 24.61 76.05 21.89 75.66 C19 75 19 75 16.32 73.48 C12.43 71.74 9.15 71.62 4.98 71.71 C4.23 71.71 3.48 71.72 2.72 71.72 C0.35 71.74 -2.01 71.77 -4.38 71.81 C-5.99 71.83 -7.6 71.84 -9.21 71.85 C-13.14 71.89 -17.07 71.94 -21 72 C-21.33 72.66 -21.66 73.32 -22 74 C-23 75 -23 75 -25.94 75.31 C-26.95 75.54 -27.96 75.77 -29 76 C-30.3 77.93 -30.3 77.93 -31 80 C-31.99 80.5 -31.99 80.5 -33 81 C-33.46 81.99 -33.46 81.99 -33.94 83 C-35 85 -35 85 -38 86 C-38.19 96.05 -38.23 103.43 -31.11 111.21 C-29.11 112.91 -27.38 113.94 -25 115 C-22.65 116.31 -20.33 117.66 -18 119 C-18 119.66 -18 120.32 -18 121 C-17.07 121.12 -16.14 121.25 -15.19 121.38 C-12 122 -12 122 -9 124 C-9 124.66 -9 125.32 -9 126 C-7.91 126.1 -6.81 126.21 -5.69 126.31 C-2 127 -2 127 -0.59 128.45 C1.48 130.47 3.28 130.85 6.06 131.56 C10.79 132.79 10.79 132.79 13 135 C15.06 135.61 17.12 136.01 19.22 136.44 C19.81 136.62 20.4 136.81 21 137 C21.33 137.66 21.66 138.32 22 139 C24.56 139.85 27.14 140.47 29.75 141.12 C30.49 141.41 31.24 141.7 32 142 C32.33 142.99 32.66 143.98 33 145 C35.08 145.69 35.08 145.69 37.5 146 C39.97 146.38 39.97 146.38 42 147 C42.33 147.99 42.66 148.98 43 150 C44.64 150.44 46.29 150.87 47.95 151.27 C51.78 152.63 55.07 155.2 58 158 C58 158.66 58 159.32 58 160 C58.97 160.29 59.94 160.58 60.94 160.88 C64 162 64 162 65 164 C65.72 164.43 66.44 164.87 67.19 165.31 C74.57 169.74 80.31 176.01 85.67 182.64 C86.11 183.09 86.55 183.54 87 184 C87.66 184 88.32 184 89 184 C89.4 182.39 89.4 182.39 89.81 180.75 C90.9 177.33 91.83 175.71 94 173 C94.27 172.26 94.54 171.51 94.81 170.75 C96.54 166.74 99.06 163.22 102 160 C102.66 160 103.32 160 104 160 C104.07 159.45 104.13 158.91 104.2 158.34 C105.34 155.01 107.37 153.07 109.75 150.5 C110.61 149.56 111.47 148.62 112.36 147.66 C114.8 145.2 117.16 142.99 120 141 C120.99 141 121.98 141 123 141 C123.21 140.42 123.41 139.84 123.62 139.25 C126.33 134.83 131.18 132.56 136 131 C136.99 131 137.98 131 139 131 C139.33 130.01 139.66 129.02 140 128 C143.88 126.61 146.86 126 151 126 C151 125.34 151 124.68 151 124 C155.34 122.37 159.07 121.7 163.7 121.55 C164.98 121.51 166.27 121.46 167.59 121.42 C168.95 121.38 170.32 121.35 171.69 121.31 C172.38 121.29 173.07 121.27 173.78 121.25 C182.25 121.02 190.71 120.9 199.19 121.31 C199.94 121.35 200.69 121.38 201.47 121.42 C205.07 121.65 207.92 122.05 211 124 C211 124.66 211 125.32 211 126 C212.12 126.06 212.12 126.06 213.27 126.11 C214.25 126.18 215.24 126.24 216.25 126.31 C217.22 126.37 218.2 126.43 219.2 126.49 C222.31 127.06 223.61 128.01 226 130 C227.85 130.89 227.85 130.89 229.69 131.56 C233 133 233 133 234 135 C235.98 136.04 237.98 137.03 240 138 C241.67 138.99 243.34 139.99 245 141 C244.98 140.16 244.95 139.31 244.93 138.45 C244.91 137.35 244.89 136.25 244.88 135.12 C244.85 134.03 244.83 132.94 244.8 131.82 C245 129 245 129 247 127 C252.52 125.61 258.19 125.86 263.85 125.87 C265.42 125.87 265.42 125.87 267.02 125.86 C269.24 125.86 271.46 125.87 273.67 125.87 C277.03 125.87 280.38 125.87 283.73 125.86 C309.22 125.85 309.22 125.85 315 127 C315.33 127.66 315.66 128.32 316 129 C315.67 129.33 315.34 129.66 315 130 C315.66 130.99 316.32 131.98 317 133 C317.19 135.51 317.26 137.91 317.24 140.42 C317.24 141.57 317.24 141.57 317.25 142.73 C317.25 145.29 317.24 147.85 317.23 150.41 C317.23 152.25 317.23 154.08 317.23 155.91 C317.23 160.9 317.22 165.88 317.2 170.86 C317.19 176.07 317.19 181.27 317.19 186.48 C317.18 196.34 317.16 206.2 317.14 216.06 C317.12 227.28 317.11 238.5 317.1 249.73 C317.08 272.82 317.04 295.91 317 319 C316.67 319 316.34 319 316 319 C316.06 320.67 316.06 320.67 316.12 322.38 C316 326 316 326 314 328 C311.27 328.26 311.27 328.26 307.76 328.27 C306.45 328.28 305.14 328.29 303.79 328.3 C302.35 328.3 300.91 328.3 299.47 328.3 C298 328.3 296.53 328.31 295.06 328.31 C291.98 328.32 288.9 328.32 285.82 328.32 C281.86 328.31 277.91 328.33 273.96 328.35 C270.92 328.36 267.89 328.37 264.85 328.36 C263.39 328.36 261.94 328.37 260.48 328.38 C258.44 328.39 256.4 328.38 254.37 328.37 C252.63 328.37 252.63 328.37 250.85 328.37 C248 328 248 328 246.13 326.67 C244.34 324.02 244.47 321.46 244.31 318.31 C244.25 317.13 244.18 315.95 244.11 314.74 C244.08 313.83 244.04 312.93 244 312 C239.51 312 233.34 315.79 230.12 318.69 C229.75 319.12 229.38 319.55 229 320 C229.33 320.66 229.66 321.32 230 322 C229.46 322.18 228.91 322.36 228.36 322.55 C227.64 322.8 226.92 323.05 226.19 323.31 C225.48 323.56 224.77 323.8 224.04 324.05 C221.84 325.07 220.7 326.3 219 328 C216.68 328.7 214.34 329.37 212 330 C211.01 330.66 210.02 331.32 209 332 C204.62 333.26 200.21 333.12 195.69 333.06 C194.95 333.06 194.21 333.05 193.44 333.05 C191.63 333.04 189.81 333.02 188 333 C188 333.33 188 333.66 188 334 C185.85 334.03 183.71 334.05 181.56 334.06 C180.37 334.07 179.17 334.09 177.94 334.1 C175 334 175 334 174 333 C170.75 332.97 167.51 333.03 164.25 333.13 C158.21 333.22 153.14 332.43 148 329 C146.09 328.45 146.09 328.45 144.06 328.06 C140.68 327.28 138.73 326.18 136 324 C134.97 323.67 133.94 323.34 132.88 323 C130 322 130 322 128 319 C126.03 317.94 124.03 316.93 122 316 C122 315.34 122 314.68 122 314 C121.26 313.75 120.53 313.5 119.77 313.25 C110.16 308.91 102.16 296.9 97 288 C96.48 287.15 95.97 286.31 95.44 285.44 C94.19 283.33 93.06 281.21 92 279 C91.34 279.66 90.68 280.32 90 281 C90.33 281.66 90.66 282.32 91 283 C90.55 283.41 90.09 283.82 89.62 284.25 C87.94 286.06 87.01 287.75 86 290 C85.34 290 84.68 290 84 290 C83.91 290.59 83.82 291.18 83.73 291.78 C82.8 294.6 81.52 295.62 79.25 297.5 C78.53 298.1 77.82 298.71 77.08 299.33 C75.41 300.67 73.71 301.97 72 303.25 C71.01 304.12 71.01 304.12 70 305 C70 305.99 70 306.98 70 308 C69.03 308.27 68.06 308.54 67.06 308.81 C66.05 309.2 65.04 309.6 64 310 C63.67 310.99 63.34 311.98 63 313 C61.35 313.33 59.7 313.66 58 314 C57.67 314.99 57.34 315.98 57 317 C55.04 318.1 55.04 318.1 52.62 319.06 C49.78 320.22 47.58 321.28 45 323 C42.74 323.63 42.74 323.63 40.31 324.12 C39.5 324.29 38.7 324.46 37.86 324.63 C37.25 324.75 36.63 324.88 36 325 C36 325.66 36 326.32 36 327 C34.94 327.19 33.88 327.39 32.79 327.59 C31.4 327.85 30.01 328.11 28.62 328.38 C27.58 328.56 27.58 328.56 26.51 328.76 C22.33 329.5 22.33 329.5 19 332 C11.76 333.37 4.42 333.16 -2.92 333.17 C-4.27 333.17 -5.62 333.17 -6.97 333.18 C-9.79 333.18 -12.61 333.19 -15.43 333.19 C-19.01 333.19 -22.6 333.2 -26.18 333.22 C-28.96 333.23 -31.75 333.23 -34.54 333.23 C-36.49 333.23 -38.44 333.24 -40.39 333.25 C-59.69 333.2 -59.69 333.2 -66 329 C-69.25 328.42 -72.5 328.05 -75.77 327.66 C-79.14 326.97 -81.12 325.81 -84 324 C-86.37 323.39 -88.7 323.01 -91.11 322.62 C-91.73 322.42 -92.36 322.21 -93 322 C-93.5 320.51 -93.5 320.51 -94 319 C-96.08 318.31 -96.08 318.31 -98.5 318 C-100.97 317.62 -100.97 317.62 -103 317 C-103.5 315.51 -103.5 315.51 -104 314 C-105.09 313.9 -106.19 313.79 -107.31 313.69 C-111.27 312.95 -111.42 312.63 -114 310 C-116 309.08 -116 309.08 -118.12 308.44 C-120.26 307.75 -120.26 307.75 -122 307 C-122.33 306.34 -122.66 305.68 -123 305 C-124.99 303.98 -126.99 302.98 -129 302 C-133.23 299.41 -136.59 296.6 -140 293 C-140.66 292.34 -141.32 291.68 -142 291 C-141.62 288.37 -141.62 288.37 -141 286 C-140.34 286 -139.68 286 -139 286 C-138.73 284.87 -138.46 283.73 -138.19 282.56 C-137.8 281.39 -137.4 280.21 -137 279 C-136.01 278.67 -135.02 278.34 -134 278 C-133.3 275.68 -132.64 273.34 -132 271 C-130.56 268.88 -130.56 268.88 -129 267 C-126.67 263.36 -124.84 259.6 -123.06 255.67 C-122 254 -122 254 -119 253 C-118.9 252.07 -118.79 251.14 -118.69 250.19 C-117.94 246.74 -117.46 246.27 -115 244 C-113.96 242.02 -112.97 240.01 -112 238 C-110.36 234.99 -108.68 231.99 -107 229 C-104.36 229 -101.72 229 -99 229 C-98.75 229.64 -98.5 230.28 -98.25 230.94 C-97.21 233.2 -97.21 233.2 -95 233.5 C-94.34 233.66 -93.68 233.83 -93 234 C-92.71 234.66 -92.42 235.32 -92.12 236 C-91.75 236.66 -91.38 237.32 -91 238 C-89.01 238.38 -87.01 238.71 -85 239 C-83.44 240.44 -83.44 240.44 -82 242 C-80.35 242.7 -78.68 243.36 -77 244 C-75.33 245 -73.67 246 -72 247 C-71.09 247.35 -70.19 247.7 -69.25 248.06 C-67 249 -67 249 -66 251 C-64.12 251.8 -64.12 251.8 -61.88 252.44 C-58.91 253.36 -56.08 254.35 -53.25 255.62 C-50.42 256.82 -47.98 257.42 -45 258 C-44.01 258.66 -43.02 259.32 -42 260 C-42 260.66 -42 261.32 -42 262 C-36.82 261.93 -31.64 261.84 -26.47 261.74 C-24.71 261.7 -22.95 261.68 -21.19 261.65 C-18.65 261.62 -16.12 261.57 -13.58 261.51 C-12.41 261.5 -12.41 261.5 -11.21 261.49 C-6.58 261.37 -3.79 260.63 0 258 C1.67 257.66 1.67 257.66 3.38 257.31 C8.45 255.47 10.73 252.14 14 248 C14.66 247.34 15.32 246.68 16 246 C16.28 243.48 16.28 243.48 16.2 240.55 C16.19 239.48 16.18 238.4 16.18 237.29 C16.16 236.17 16.14 235.04 16.12 233.88 C16.12 232.74 16.11 231.6 16.1 230.43 C16.07 227.62 16.04 224.81 16 222 C14.68 221.34 13.36 220.68 12 220 C12 219.01 12 218.02 12 217 C11.3 216.75 10.6 216.5 9.88 216.25 C6.03 214.58 2.43 212.55 -0.44 209.44 C-2.89 207.18 -5.95 206.28 -9 205 C-9.66 204.34 -10.32 203.68 -11 203 C-12.88 202.3 -14.75 201.6 -16.64 200.92 C-22.01 198.82 -27.2 196.2 -32 193 C-33.2 192.69 -34.39 192.38 -35.62 192.06 C-36.74 191.71 -37.85 191.36 -39 191 C-39.33 190.01 -39.66 189.02 -40 188 C-42.08 187.31 -42.08 187.31 -44.5 187 C-46.97 186.62 -46.97 186.62 -49 186 C-49.33 185.01 -49.66 184.02 -50 183 C-51.64 182.85 -51.64 182.85 -53.31 182.69 C-57.24 181.95 -57.46 181.65 -60 179 C-61.83 177.94 -61.83 177.94 -63.81 177.06 C-73.24 172.52 -73.24 172.52 -75 169 C-76.27 168.26 -76.27 168.26 -77.56 167.5 C-78.77 166.76 -78.77 166.76 -80 166 C-80 165.34 -80 164.68 -80 164 C-80.7 163.81 -81.4 163.63 -82.12 163.44 C-85.55 161.72 -87.21 159.68 -89.59 156.74 C-91.86 153.95 -94.45 151.52 -97.06 149.06 C-100.66 145.23 -102.74 140.59 -105.02 135.91 C-106.03 133.85 -106.03 133.85 -107.69 131.5 C-109.52 128.01 -109.67 124.92 -110 121 C-110.66 121 -111.32 121 -112 121 C-114.3 113.92 -114.31 106.97 -114.26 99.59 C-114.25 97.5 -114.26 95.42 -114.27 93.33 C-114.28 84.87 -113.99 77.62 -110 70 C-109.65 68.51 -109.33 67.01 -109.06 65.5 C-108.31 61.89 -107.38 59.85 -105 57 C-103.9 54.7 -102.96 52.37 -102 50 C-101.34 50 -100.68 50 -100 50 C-99.73 49.03 -99.46 48.06 -99.19 47.06 C-98.6 45.55 -98.6 45.55 -98 44 C-97.01 43.67 -96.02 43.34 -95 43 C-94.64 41.67 -94.31 40.34 -94 39 C-92.66 37.29 -92.66 37.29 -90.98 35.62 C-90.37 35.01 -89.76 34.4 -89.13 33.77 C-88.49 33.14 -87.85 32.52 -87.19 31.88 C-86.24 30.93 -86.24 30.93 -85.28 29.96 C-82.3 27.01 -79.8 24.82 -76 23 C-75.48 22.48 -74.97 21.97 -74.44 21.44 C-73 20 -73 20 -70 19 C-69.38 18.36 -68.76 17.72 -68.12 17.06 C-65.8 14.81 -64.01 14.1 -61 13 C-60.15 12.46 -59.31 11.93 -58.44 11.38 C-56 10 -56 10 -52 10 C-52 9.34 -52 8.68 -52 8 C-42.59 4.56 -42.59 4.56 -38 5 C-37.67 4.01 -37.34 3.02 -37 2 C-33.08 0.57 -28.82 0.65 -24.69 0.44 C-23.48 0.37 -23.48 0.37 -22.25 0.31 C-14.83 -0.05 -7.43 -0.17 0 0 Z M84 46 C83.34 46.66 82.68 47.32 82 48 C82.99 48 83.98 48 85 48 C84.67 47.34 84.34 46.68 84 46 Z M79 56 C78.67 56.66 78.34 57.32 78 58 C78.66 58 79.32 58 80 58 C79.67 57.34 79.34 56.68 79 56 Z M-12 68 C-12 68.33 -12 68.66 -12 69 C-6.72 69 -1.44 69 4 69 C4 68.67 4 68.34 4 68 C-1.28 68 -6.56 68 -12 68 Z M26 72 C25.34 72.66 24.68 73.32 24 74 C24.99 74 25.98 74 27 74 C26.67 73.34 26.34 72.68 26 72 Z M-32 76 C-32.33 76.66 -32.66 77.32 -33 78 C-32.34 78 -31.68 78 -31 78 C-31.33 77.34 -31.66 76.68 -32 76 Z M-42 96 C-41 100 -41 100 -41 100 Z M-36 106 C-35 108 -35 108 -35 108 Z M-55 179 C-55.33 179.66 -55.66 180.32 -56 181 C-55.34 181 -54.68 181 -54 181 C-54.33 180.34 -54.66 179.68 -55 179 Z M188.59 183.91 C188.07 184.6 187.54 185.29 187 186 C184.31 187.12 181.9 187.48 179 188 C178.34 187.67 177.68 187.34 177 187 C169.61 194.88 169.61 194.88 164 204 C163.34 203.67 162.68 203.34 162 203 C162 203.99 162 204.98 162 206 C161.34 206.33 160.68 206.66 160 207 C158 220.06 157.76 235.14 161 248 C162.45 249.72 162.45 249.72 164 251 C164.69 253.69 164.69 253.69 165 256 C165.99 256.33 166.98 256.66 168 257 C168.9 258.14 168.9 258.14 169.81 259.31 C173.34 263.64 177.71 266.28 183 268 C183.99 268 184.98 268 186 268 C186 268.66 186 269.32 186 270 C191.41 272.24 196.31 272.33 202.06 272.31 C202.95 272.33 203.83 272.34 204.74 272.36 C209.77 272.37 212.82 272.04 217 269 C218.46 268.5 219.94 268.03 221.44 267.62 C225.94 266.2 228.67 264.33 232 261 C232 260.34 232 259.68 232 259 C232.58 258.77 233.15 258.55 233.75 258.31 C238.96 255.28 240.81 250.38 243 245 C243.66 244.01 244.32 243.02 245 242 C245.47 237.45 245.37 232.88 245.38 228.31 C245.41 226.43 245.41 226.43 245.45 224.51 C245.47 217.09 244.85 212.34 241 206 C240.84 205.32 240.67 204.64 240.51 203.94 C239.23 199.04 233.33 195.51 229.55 192.33 C228.32 191.27 227.15 190.15 226 189 C223.2 187.43 220.37 186.4 217.31 185.44 C213.11 184.11 213.11 184.11 212 183 C208.58 182.54 205.13 182.39 201.69 182.19 C200.72 182.11 199.76 182.03 198.77 181.96 C193.27 181.47 193.27 181.47 188.59 183.91 Z M-35 188 C-35.33 188.66 -35.66 189.32 -36 190 C-35.34 190 -34.68 190 -34 190 C-34.33 189.34 -34.66 188.68 -35 188 Z M-14 198 C-14.66 198.66 -15.32 199.32 -16 200 C-15.01 200 -14.02 200 -13 200 C-13.33 199.34 -13.66 198.68 -14 198 Z M157 222 C157 224.31 157 226.62 157 229 C157.33 229 157.66 229 158 229 C158 226.69 158 224.38 158 222 C157.67 222 157.34 222 157 222 Z M-93 236 C-92 238 -92 238 -92 238 Z M157 242 C158 244 158 244 158 244 Z M55 314 C54.67 314.66 54.34 315.32 54 316 C54.66 316 55.32 316 56 316 C55.67 315.34 55.34 314.68 55 314 Z M47 318 C48 320 48 320 48 320 Z M133 319 C132.67 319.66 132.34 320.32 132 321 C132.66 321 133.32 321 134 321 C133.67 320.34 133.34 319.68 133 319 Z " fill="#FAFBFD" transform="translate(161,32)"/>
<path d="M0 0 C1.18 -0.01 2.37 -0.02 3.59 -0.03 C4.86 -0.03 6.13 -0.04 7.44 -0.04 C8.75 -0.05 10.07 -0.05 11.42 -0.06 C14.19 -0.07 16.97 -0.08 19.74 -0.08 C23.29 -0.08 26.84 -0.11 30.38 -0.14 C33.78 -0.16 37.17 -0.16 40.57 -0.17 C42.47 -0.19 42.47 -0.19 44.42 -0.2 C45.6 -0.2 46.79 -0.2 48.01 -0.2 C49.05 -0.2 50.09 -0.2 51.16 -0.21 C54.51 0.23 56.33 1.11 59 3.16 C61.52 6.8 61.29 10.63 61.28 14.89 C61.29 15.68 61.29 16.46 61.3 17.27 C61.32 19.89 61.32 22.52 61.32 25.15 C61.33 27.03 61.34 28.91 61.35 30.8 C61.38 35.91 61.4 41.02 61.41 46.14 C61.42 51.48 61.45 56.82 61.48 62.16 C61.52 72.28 61.56 82.4 61.59 92.52 C61.63 104.04 61.68 115.55 61.73 127.07 C61.83 150.77 61.92 174.47 62 198.16 C62.96 197.38 63.91 196.59 64.89 195.79 C65.69 195.12 65.69 195.12 66.51 194.45 C68.34 192.87 69.85 191.15 71.38 189.29 C73.76 186.49 76.2 184.03 79 181.66 C82.45 178.74 85.31 175.58 88.22 172.13 C90.64 169.46 93.35 167.2 96.1 164.88 C97.92 163.24 99.45 161.55 101 159.66 C103.14 157.07 105.38 154.89 107.94 152.72 C111.4 149.78 114.36 146.63 117.27 143.15 C117.84 142.5 118.41 141.84 119 141.16 C119.71 140.31 120.43 139.46 121.16 138.58 C124.75 135.53 126.61 135.51 131.28 135.45 C132.34 135.43 132.34 135.43 133.42 135.41 C135.74 135.36 138.06 135.36 140.38 135.35 C142 135.33 143.62 135.3 145.24 135.28 C149.37 135.22 153.5 135.19 157.63 135.17 C159.88 135.16 162.13 135.14 164.38 135.12 C177.51 134.99 190.63 135.03 203.75 135.54 C204.66 135.57 205.56 135.6 206.5 135.63 C207.32 135.67 208.14 135.71 208.99 135.75 C209.7 135.78 210.41 135.81 211.14 135.84 C213 136.16 213 136.16 216 138.16 C215.67 138.82 215.34 139.48 215 140.16 C214.34 140.16 213.68 140.16 213 140.16 C211.43 141.71 211.43 141.71 209.81 143.72 C206.4 147.73 202.82 151.46 199.07 155.14 C198.1 156.11 198.1 156.11 197.1 157.1 C195.69 158.49 194.29 159.88 192.89 161.26 C190.66 163.46 188.45 165.66 186.23 167.86 C179.93 174.11 173.64 180.36 167.32 186.6 C163.45 190.42 159.58 194.26 155.72 198.1 C154.25 199.56 152.78 201.02 151.3 202.47 C149.25 204.49 147.2 206.53 145.16 208.57 C144.54 209.17 143.93 209.76 143.3 210.38 C140.14 213.56 138.47 215.54 138 220.16 C136.3 222.04 136.3 222.04 134.19 223.72 C133.47 224.32 132.76 224.91 132.02 225.52 C131.35 226.06 130.69 226.6 130 227.16 C127.6 229.3 127.6 229.3 126 231.16 C125.77 233.27 125.77 233.27 127.44 234.66 C128.21 235.4 128.21 235.4 129 236.16 C129.33 236.82 129.66 237.48 130 238.16 C130.99 238.49 131.98 238.82 133 239.16 C134.55 240.76 134.55 240.76 136.19 242.79 C138.63 245.68 141.11 248.22 144 250.66 C147.48 253.6 150.36 256.79 153.29 260.26 C154.93 262.08 156.61 263.61 158.5 265.16 C161.1 267.29 163.27 269.53 165.44 272.1 C167.8 274.88 170.22 277.31 173 279.66 C176.45 282.58 179.31 285.75 182.22 289.19 C184.64 291.87 187.35 294.12 190.1 296.45 C192.47 298.59 194.42 300.95 196.45 303.42 C198.15 305.33 199.98 306.94 201.94 308.6 C205.43 311.56 208.33 314.75 211.27 318.25 C213 320.16 214.81 321.73 216.82 323.35 C219.7 325.7 220.79 327.61 222 331.16 C222.99 331.49 223.98 331.82 225 332.16 C223.25 336.04 223.25 336.04 221 337.16 C218.33 337.29 215.67 337.35 212.99 337.37 C212.17 337.38 211.34 337.39 210.48 337.4 C207.74 337.43 204.99 337.45 202.24 337.47 C201.3 337.48 200.37 337.48 199.4 337.49 C194.43 337.52 189.46 337.55 184.49 337.57 C180.38 337.58 176.28 337.62 172.17 337.67 C167.2 337.73 162.24 337.76 157.28 337.77 C155.39 337.78 153.5 337.8 151.61 337.83 C148.96 337.87 146.31 337.87 143.66 337.86 C142.89 337.88 142.11 337.9 141.31 337.92 C135.95 337.85 133.28 336.35 129.43 332.65 C128.96 332.16 128.49 331.67 128 331.16 C127.35 330.49 126.69 329.81 126.01 329.11 C125.53 328.55 125.06 327.99 124.57 327.41 C124.07 326.84 123.58 326.27 123.07 325.68 C122 324.16 122 324.16 122 322.16 C120.68 321.83 119.36 321.5 118 321.16 C117.67 319.84 117.34 318.52 117 317.16 C115.68 316.83 114.36 316.5 113 316.16 C113 315.17 113 314.18 113 313.16 C111.35 312.5 109.7 311.84 108 311.16 C108 310.17 108 309.18 108 308.16 C106.68 307.83 105.36 307.5 104 307.16 C103.67 305.84 103.34 304.52 103 303.16 C101.68 302.83 100.36 302.5 99 302.16 C98.67 300.84 98.34 299.52 98 298.16 C96.68 297.83 95.36 297.5 94 297.16 C93.67 295.84 93.34 294.52 93 293.16 C92.41 293.07 91.82 292.98 91.21 292.89 C88.44 291.98 87.55 290.8 85.75 288.54 C83.33 285.63 80.9 283.09 78 280.66 C74.53 277.73 71.62 274.56 68.74 271.06 C66.69 268.81 64.39 267.04 62 265.16 C62 266.01 61.99 266.86 61.98 267.73 C61.9 275.7 61.81 283.68 61.72 291.66 C61.67 295.76 61.62 299.86 61.58 303.96 C61.55 307.91 61.5 311.87 61.45 315.82 C61.43 317.33 61.41 318.85 61.4 320.36 C61.38 322.47 61.35 324.58 61.32 326.69 C61.31 327.9 61.3 329.1 61.28 330.34 C61 333.16 61 333.16 59 335.16 C55.44 337.54 53.89 337.41 49.65 337.42 C48.34 337.43 47.03 337.43 45.68 337.44 C44.25 337.44 42.81 337.43 41.38 337.43 C39.91 337.43 38.44 337.43 36.97 337.43 C33.9 337.44 30.82 337.43 27.74 337.42 C23.8 337.41 19.86 337.42 15.91 337.43 C12.88 337.44 9.85 337.43 6.82 337.43 C5.36 337.43 3.91 337.43 2.45 337.43 C0.42 337.44 -1.61 337.43 -3.64 337.42 C-4.8 337.42 -5.96 337.42 -7.15 337.42 C-10 337.16 -10 337.16 -13 335.16 C-13.37 332.79 -13.37 332.79 -13.37 329.75 C-13.38 328.6 -13.39 327.44 -13.39 326.25 C-13.38 324.33 -13.38 324.33 -13.37 322.37 C-13.37 321.01 -13.38 319.64 -13.38 318.28 C-13.39 314.52 -13.38 310.75 -13.37 306.99 C-13.36 302.94 -13.37 298.88 -13.38 294.83 C-13.39 286.88 -13.38 278.93 -13.37 270.99 C-13.36 261.74 -13.36 252.49 -13.36 243.24 C-13.36 226.75 -13.35 210.25 -13.33 193.76 C-13.31 177.74 -13.31 161.72 -13.31 145.7 C-13.32 128.27 -13.32 110.84 -13.31 93.41 C-13.31 91.55 -13.3 89.7 -13.3 87.84 C-13.3 86.93 -13.3 86.01 -13.3 85.07 C-13.3 78.62 -13.3 72.17 -13.3 65.72 C-13.3 57.86 -13.3 50 -13.28 42.14 C-13.27 38.13 -13.27 34.12 -13.27 30.1 C-13.28 26.43 -13.27 22.76 -13.26 19.09 C-13.26 17.13 -13.26 15.17 -13.27 13.2 C-13.26 12.04 -13.26 10.89 -13.25 9.69 C-13.25 8.69 -13.25 7.69 -13.25 6.65 C-13 4.16 -13 4.16 -11 1.16 C-7.35 0.06 -3.78 0.02 0 0 Z M59 178.16 C59 184.1 59 190.04 59 196.16 C59.33 196.16 59.66 196.16 60 196.16 C60 190.22 60 184.28 60 178.16 C59.67 178.16 59.34 178.16 59 178.16 Z M133 220.16 C132.01 221.65 132.01 221.65 131 223.16 C131.99 222.83 132.98 222.5 134 222.16 C133.67 221.5 133.34 220.84 133 220.16 Z M59 262.16 C59 273.38 59 284.6 59 296.16 C59.33 296.16 59.66 296.16 60 296.16 C60 284.94 60 273.72 60 262.16 C59.67 262.16 59.34 262.16 59 262.16 Z " fill="#FBFCFE" transform="translate(496.99609375,22.8388671875)"/>
<path d="M0 0 C1.18 -0.01 2.37 -0.02 3.59 -0.03 C4.86 -0.03 6.12 -0.03 7.43 -0.03 C9.39 -0.03 9.39 -0.03 11.4 -0.04 C14.17 -0.05 16.94 -0.05 19.7 -0.04 C23.24 -0.04 26.78 -0.05 30.32 -0.08 C33.71 -0.09 37.1 -0.09 40.49 -0.09 C42.39 -0.1 42.39 -0.1 44.33 -0.12 C45.51 -0.11 46.69 -0.1 47.91 -0.1 C48.95 -0.1 49.98 -0.1 51.05 -0.1 C54.39 0.34 56.22 1.23 58.89 3.27 C61.41 6.91 61.18 10.75 61.17 15.01 C61.17 15.79 61.18 16.57 61.19 17.38 C61.2 20.01 61.21 22.63 61.21 25.26 C61.22 27.14 61.23 29.03 61.24 30.91 C61.27 36.02 61.28 41.14 61.3 46.25 C61.31 51.59 61.34 56.93 61.36 62.28 C61.41 72.39 61.45 82.51 61.48 92.63 C61.52 104.15 61.57 115.67 61.62 127.19 C61.72 150.88 61.81 174.58 61.89 198.27 C62.84 197.49 63.79 196.71 64.78 195.9 C65.58 195.24 65.58 195.24 66.4 194.56 C68.22 192.99 69.74 191.27 71.27 189.4 C73.65 186.6 76.08 184.15 78.89 181.77 C82.34 178.86 85.19 175.69 88.11 172.25 C90.53 169.57 93.24 167.32 95.99 164.99 C97.81 163.35 99.34 161.66 100.89 159.77 C103.64 156.43 106.72 153.69 110.02 150.9 C112.05 149.18 112.05 149.18 114.39 146.71 C123.04 138.27 123.04 138.27 127.89 138.27 C127.89 138.93 127.89 139.59 127.89 140.27 C126.58 141.56 126.58 141.56 124.68 143.11 C119.16 147.81 114.11 152.96 109.01 158.11 C107.22 159.92 105.42 161.73 103.62 163.53 C98.52 168.66 93.42 173.8 88.33 178.93 C85.2 182.09 82.06 185.24 78.92 188.39 C77.73 189.59 76.55 190.79 75.36 191.99 C73.7 193.66 72.04 195.33 70.38 197 C69.9 197.49 69.41 197.98 68.91 198.49 C66.13 201.27 63.48 203.62 59.89 205.27 C58.57 204.94 57.25 204.61 55.89 204.27 C55.89 138.6 55.89 72.93 55.89 5.27 C34.44 5.27 12.99 5.27 -9.11 5.27 C-9.11 113.51 -9.11 221.75 -9.11 333.27 C-10.1 333.27 -11.09 333.27 -12.11 333.27 C-12.11 224.04 -12.11 114.81 -12.11 2.27 C-7.26 0.66 -4.83 0.02 0 0 Z M58.89 178.27 C58.89 184.21 58.89 190.15 58.89 196.27 C59.22 196.27 59.55 196.27 59.89 196.27 C59.89 190.33 59.89 184.39 59.89 178.27 C59.56 178.27 59.23 178.27 58.89 178.27 Z " fill="#9D9E9F" transform="translate(497.109619140625,22.725341796875)"/>
<path d="M0 0 C2.38 0.25 2.38 0.25 5 1 C6.12 3 6.12 3 7 5 C7.99 5.33 8.98 5.66 10 6 C11.54 7.6 11.54 7.6 13.19 9.62 C15.63 12.52 18.11 15.06 21 17.5 C24.47 20.44 27.35 23.63 30.29 27.1 C31.93 28.92 33.61 30.45 35.5 32 C38.1 34.13 40.27 36.37 42.44 38.94 C44.8 41.72 47.22 44.14 50 46.5 C53.45 49.42 56.3 52.58 59.21 56.03 C61.64 58.7 64.35 60.96 67.1 63.29 C69.47 65.42 71.42 67.79 73.44 70.25 C75.15 72.17 76.98 73.78 78.94 75.44 C82.42 78.39 85.33 81.59 88.27 85.09 C90 87 91.81 88.57 93.81 90.19 C96.69 92.54 97.78 94.45 99 98 C100.49 98.5 100.49 98.5 102 99 C101.67 99.66 101.34 100.32 101 101 C97.21 100.46 95.45 98.88 93 96 C93 95.34 93 94.68 93 94 C92.41 93.73 91.81 93.46 91.2 93.19 C88.98 91.99 87.58 90.79 85.83 88.99 C85.25 88.4 84.67 87.81 84.08 87.2 C83.47 86.58 82.87 85.95 82.25 85.31 C77.84 80.82 73.41 76.47 68.62 72.39 C66.27 70.37 64.1 68.29 62 66 C62 65.34 62 64.68 62 64 C61.46 63.78 60.92 63.57 60.36 63.34 C57.18 61.54 54.79 59.08 52.25 56.5 C51.74 56 51.24 55.5 50.71 54.99 C47 51.25 47 51.25 47 49 C46.44 48.76 45.88 48.53 45.3 48.28 C42.48 46.71 40.52 44.79 38.25 42.5 C37.45 41.71 36.65 40.91 35.83 40.09 C34 38 34 38 34 36 C33.42 35.77 32.85 35.55 32.25 35.31 C29.4 33.65 28.06 31.58 26 29 C24.03 27.19 22 25.45 19.97 23.71 C17.5 21.57 15.2 19.41 13 17 C13 16.34 13 15.68 13 15 C12.34 15 11.68 15 11 15 C11 14.34 11 13.68 11 13 C10.42 12.75 9.83 12.5 9.23 12.25 C6.68 10.82 5.16 9.26 3.25 7.06 C2.64 6.37 2.02 5.68 1.39 4.97 C0 3 0 3 0 0 Z " fill="#A2A3A4" transform="translate(620,256)"/>
<path d="M0 0 C2.38 0.25 2.38 0.25 5 1 C5.68 2.32 6.35 3.66 7 5 C8.99 6.34 10.99 7.68 13 9 C15 11.29 16.74 13.61 18.44 16.12 C20.33 18.4 22.45 19.52 25 21 C25.33 21.66 25.66 22.32 26 23 C26.66 23.33 27.32 23.66 28 24 C28 24.66 28 25.32 28 26 C28.58 26.26 29.16 26.51 29.76 26.77 C32.23 28.13 33.87 29.63 35.86 31.62 C36.56 32.33 37.26 33.04 37.99 33.77 C39.08 34.87 39.08 34.87 40.19 36 C40.92 36.74 41.66 37.47 42.42 38.23 C47.86 43.72 47.86 43.72 49 46 C50.1 46.99 51.23 47.94 52.38 48.88 C55.01 51.08 56.97 53.23 59 56 C60.11 56.87 60.11 56.87 61.25 57.75 C64.39 60.32 66.85 63.19 69.45 66.29 C70.91 68.1 70.91 68.1 73 69 C73 69.66 73 70.32 73 71 C69.14 70.43 66.5 69.34 63.25 67.19 C62.47 66.69 61.69 66.18 60.89 65.67 C58.77 63.8 58.36 62.75 58 60 C56.68 59.67 55.36 59.34 54 59 C53.5 57.02 53.5 57.02 53 55 C51.68 54.67 50.36 54.34 49 54 C49 53.01 49 52.02 49 51 C47.35 50.34 45.7 49.68 44 49 C44 48.01 44 47.02 44 46 C42.68 45.67 41.36 45.34 40 45 C39.5 43.02 39.5 43.02 39 41 C37.68 40.67 36.36 40.34 35 40 C34.5 38.02 34.5 38.02 34 36 C32.68 35.67 31.36 35.34 30 35 C29.67 33.68 29.34 32.36 29 31 C28.41 30.91 27.81 30.82 27.2 30.73 C24.44 29.81 23.55 28.64 21.75 26.38 C19.27 23.38 16.75 20.85 13.75 18.38 C10.39 15.53 8.91 12.99 7 9 C5.22 7.08 3.36 5.29 1.43 3.52 C0 2 0 2 0 0 Z " fill="#ACADAE" transform="translate(561,285)"/>
<path d="M0 0 C0.66 0 1.32 0 2 0 C3.32 2.64 3.14 4.63 3.16 7.58 C3.18 8.77 3.19 9.95 3.2 11.17 C3.21 12.48 3.21 13.79 3.22 15.14 C3.23 16.52 3.24 17.91 3.26 19.3 C3.29 23.07 3.31 26.84 3.34 30.61 C3.36 34.55 3.39 38.49 3.42 42.43 C3.47 49.05 3.52 55.66 3.56 62.28 C3.61 69.94 3.66 77.6 3.72 85.26 C3.77 91.82 3.82 98.39 3.87 104.96 C3.89 108.89 3.92 112.81 3.95 116.74 C3.98 120.43 4 124.12 4.02 127.81 C4.04 129.81 4.05 131.82 4.07 133.83 C4.08 135.01 4.08 136.2 4.09 137.42 C4.1 138.46 4.1 139.49 4.11 140.56 C4 143 4 143 3 145 C2.01 145 1.02 145 0 145 C0 97.15 0 49.3 0 0 Z " fill="#979899" transform="translate(936,212)"/>
<path d="M0 0 C0.66 0 1.32 0 2 0 C2.99 3.3 3.12 6.28 3.12 9.72 C3.12 10.89 3.12 12.05 3.12 13.26 C3.12 14.53 3.12 15.81 3.11 17.12 C3.11 18.48 3.11 19.84 3.11 21.2 C3.11 24.89 3.11 28.58 3.1 32.27 C3.1 36.13 3.09 39.99 3.09 43.84 C3.09 51.15 3.08 58.45 3.07 65.75 C3.06 74.07 3.06 82.38 3.05 90.69 C3.04 107.8 3.02 124.9 3 142 C2.01 141.67 1.02 141.34 0 141 C0 140.34 0 139.68 0 138.99 C0.02 122.87 0.04 106.74 0.05 90.62 C0.06 82.82 0.06 75.02 0.08 67.22 C0.09 60.42 0.09 53.62 0.09 46.82 C0.1 43.22 0.1 39.63 0.11 36.03 C0.11 32 0.11 27.98 0.11 23.96 C0.12 22.77 0.12 21.59 0.12 20.37 C0.12 15.47 0.03 10.68 -0.57 5.82 C-1 2 -1 2 0 0 Z " fill="#979899" transform="translate(1004,214)"/>
<path d="M0 0 C2.44 3.66 2.29 6.38 2.28 10.61 C2.28 11.39 2.29 12.18 2.3 12.98 C2.31 15.61 2.32 18.24 2.32 20.87 C2.33 22.76 2.34 24.64 2.35 26.52 C2.38 31.64 2.39 36.76 2.4 41.87 C2.42 47.22 2.45 52.56 2.47 57.91 C2.52 68.03 2.56 78.16 2.59 88.28 C2.63 99.81 2.68 111.34 2.73 122.86 C2.83 146.57 2.92 170.29 3 194 C4.98 192.02 4.98 192.02 7 190 C7.66 190.33 8.32 190.66 9 191 C7.42 194.17 6.55 195.73 3.31 197.31 C2.55 197.54 1.79 197.77 1 198 C-0.06 193.68 -0.14 189.49 -0.12 185.07 C-0.12 184.28 -0.12 183.49 -0.12 182.67 C-0.12 180.02 -0.12 177.37 -0.11 174.72 C-0.11 172.81 -0.11 170.91 -0.11 169.01 C-0.11 163.85 -0.11 158.68 -0.1 153.52 C-0.1 148.12 -0.09 142.73 -0.09 137.33 C-0.09 127.12 -0.08 116.9 -0.07 106.68 C-0.06 95.05 -0.06 83.42 -0.05 71.78 C-0.04 47.86 -0.02 23.93 0 0 Z " fill="#FCFDFF" transform="translate(556,27)"/>
<path d="M0 0 C0.99 0.33 1.98 0.66 3 1 C2.67 1.66 2.34 2.32 2 3 C1.34 3 0.68 3 0 3 C-1.57 4.55 -1.57 4.55 -3.19 6.56 C-6.6 10.57 -10.18 14.29 -13.93 17.98 C-14.58 18.63 -15.24 19.27 -15.91 19.94 C-17.31 21.33 -18.71 22.71 -20.12 24.1 C-22.34 26.3 -24.56 28.5 -26.77 30.7 C-33.07 36.95 -39.37 43.2 -45.68 49.44 C-49.56 53.26 -53.42 57.1 -57.28 60.94 C-58.75 62.4 -60.22 63.86 -61.7 65.31 C-63.76 67.33 -65.8 69.37 -67.85 71.41 C-68.46 72 -69.07 72.6 -69.7 73.21 C-72.87 76.41 -74.5 78.37 -75 83 C-77.15 84.46 -78.4 85 -81 85 C-82.21 86.12 -83.37 87.3 -84.5 88.5 C-85.63 89.7 -86.79 90.88 -88 92 C-88.66 92 -89.32 92 -90 92 C-90.33 92.99 -90.66 93.98 -91 95 C-91.66 94.34 -92.32 93.68 -93 93 C-88.24 87.4 -83.24 82.15 -78 77 C-74.67 73.68 -71.36 70.34 -68.06 66.99 C-66.66 65.58 -65.27 64.17 -63.87 62.76 C-62.91 61.79 -61.95 60.82 -61 59.85 C-59.61 58.43 -58.21 57.02 -56.81 55.61 C-55.98 54.78 -55.15 53.94 -54.3 53.08 C-52 51 -52 51 -49.82 49.96 C-47.43 48.7 -47.2 47.42 -46 45 C-44.11 42.95 -42.21 40.98 -40.22 39.03 C-39.66 38.46 -39.09 37.9 -38.5 37.32 C-36.69 35.52 -34.88 33.73 -33.06 31.94 C-31.84 30.73 -30.63 29.52 -29.41 28.31 C-27.17 26.09 -24.94 23.88 -22.7 21.66 C-21.19 20.18 -19.7 18.68 -18.26 17.14 C-17 16 -17 16 -15 16 C-14.78 15.46 -14.57 14.91 -14.34 14.36 C-12.54 11.19 -10.08 8.83 -7.5 6.31 C-7 5.81 -6.5 5.32 -5.99 4.8 C-2.28 1.14 -2.28 1.14 0 0 Z " fill="#9B9C9D" transform="translate(710,160)"/>
<path d="M0 0 C2.48 0.99 2.48 0.99 5 2 C5 2.66 5 3.32 5 4 C3.68 4.33 2.36 4.66 1 5 C0.67 28.76 0.34 52.52 0 77 C-0.99 76.67 -1.98 76.34 -3 76 C-3.07 66.68 -3.12 57.36 -3.16 48.04 C-3.17 43.72 -3.19 39.39 -3.23 35.06 C-3.26 30.89 -3.28 26.71 -3.28 22.54 C-3.29 20.94 -3.3 19.35 -3.32 17.76 C-3.34 15.53 -3.34 13.29 -3.34 11.06 C-3.35 9.79 -3.35 8.52 -3.36 7.21 C-2.98 3.81 -2.32 2.45 0 0 Z " fill="#979899" transform="translate(556,280)"/>
<path d="M0 0 C0.99 0.33 1.98 0.66 3 1 C6.6 11.79 7.59 31.3 2.44 41.69 C1.96 42.45 1.49 43.21 1 44 C-1.73 40 -1.27 35.76 -1.23 31.11 C-1.23 30.26 -1.23 29.4 -1.23 28.51 C-1.23 26.71 -1.22 24.9 -1.21 23.09 C-1.19 20.31 -1.19 17.53 -1.19 14.76 C-1.18 13 -1.17 11.24 -1.17 9.49 C-1.17 8.65 -1.17 7.82 -1.16 6.96 C-1.12 1.12 -1.12 1.12 0 0 Z M2 28 C3 31 3 31 3 31 Z M2 33 C3 36 3 36 3 36 Z " fill="#979899" transform="translate(1257,239)"/>
<path d="M0 0 C1.57 0 1.57 0 3.17 0 C8.5 0.03 13.62 0.26 18.88 1.19 C18.88 1.85 18.88 2.51 18.88 3.19 C19.87 3.19 20.86 3.19 21.88 3.19 C21.88 3.85 21.88 4.51 21.88 5.19 C7.36 5.19 -7.16 5.19 -22.12 5.19 C-21.79 4.2 -21.47 3.21 -21.12 2.19 C-14.08 0.01 -7.33 -0.09 0 0 Z " fill="#979899" transform="translate(1017.125,17.8125)"/>
<path d="M0 0 C0.66 0.66 1.32 1.32 2 2 C1.67 2.66 1.34 3.32 1 4 C0.89 5.87 0.85 7.75 0.84 9.63 C0.83 10.83 0.82 12.03 0.81 13.26 C0.81 14.59 0.8 15.93 0.79 17.26 C0.79 18.66 0.78 20.06 0.76 21.46 C0.74 25.27 0.72 29.07 0.7 32.88 C0.67 36.85 0.65 40.83 0.62 44.8 C0.57 52.33 0.53 59.86 0.48 67.39 C0.43 75.96 0.38 84.53 0.32 93.1 C0.21 110.73 0.1 128.37 0 146 C-0.33 146 -0.66 146 -1 146 C-2.33 131.94 -2.16 117.84 -2.17 103.73 C-2.17 101.63 -2.17 99.52 -2.17 97.41 C-2.18 90.06 -2.19 82.7 -2.19 75.35 C-2.18 68.5 -2.2 61.65 -2.21 54.81 C-2.22 48.91 -2.23 43.01 -2.23 37.11 C-2.23 33.59 -2.23 30.08 -2.24 26.56 C-2.25 22.66 -2.25 18.76 -2.24 14.85 C-2.25 13.69 -2.25 12.53 -2.26 11.33 C-2.26 10.27 -2.25 9.21 -2.25 8.12 C-2.25 7.2 -2.25 6.28 -2.25 5.33 C-2 3 -2 3 0 0 Z " fill="#979899" transform="translate(919,210)"/>
<path d="M0 0 C0.66 0 1.32 0 2 0 C2.17 6.66 2.33 13.31 2.48 19.97 C2.54 22.24 2.59 24.5 2.65 26.77 C2.73 30.02 2.81 33.27 2.88 36.52 C2.91 37.54 2.93 38.56 2.96 39.61 C2.98 40.55 3 41.49 3.02 42.46 C3.04 43.29 3.06 44.12 3.08 44.98 C3 47 3 47 2 49 C1.34 49 0.68 49 0 49 C-1.94 44.13 -2.29 39.71 -2.27 34.53 C-2.27 33.73 -2.27 32.93 -2.27 32.11 C-2.27 30.43 -2.27 28.75 -2.26 27.07 C-2.25 24.51 -2.26 21.95 -2.27 19.39 C-2.27 17.75 -2.27 16.11 -2.27 14.47 C-2.27 13.71 -2.27 12.95 -2.28 12.17 C-2.24 7.73 -1.64 4.12 0 0 Z " fill="#ACADAE" transform="translate(685,235)"/>
<path d="M0 0 C0.33 0 0.66 0 1 0 C1 19.14 1 38.28 1 58 C0.34 58 -0.32 58 -1 58 C-2.22 55.57 -2.13 54 -2.15 51.28 C-2.15 50.3 -2.16 49.32 -2.16 48.3 C-2.17 47.24 -2.17 46.17 -2.17 45.08 C-2.17 43.44 -2.17 43.44 -2.18 41.77 C-2.18 39.45 -2.19 37.13 -2.19 34.82 C-2.19 31.28 -2.21 27.74 -2.22 24.2 C-2.23 21.95 -2.23 19.7 -2.23 17.45 C-2.24 16.4 -2.24 15.34 -2.25 14.25 C-2.24 9.1 -2.08 4.81 0 0 Z " fill="#979899" transform="translate(938,101)"/>
<path d="M0 0 C5.85 2.67 10.33 5.6 15 10 C16.24 11.14 16.24 11.14 17.5 12.31 C27.37 22.92 27.37 22.92 29 30 C24.49 27.23 21.26 24.34 17.75 20.31 C9.56 10.47 9.56 10.47 -1 4 C-0.67 2.68 -0.34 1.36 0 0 Z " fill="#9E9FA0" transform="translate(222,194)"/>
<path d="M0 0 C0.66 0 1.32 0 2 0 C2 16.17 2 32.34 2 49 C1.01 49 0.02 49 -1 49 C-1 33.82 -1 18.64 -1 3 C-0.34 3 0.32 3 1 3 C0.67 2.01 0.34 1.02 0 0 Z " fill="#979899" transform="translate(1005,109)"/>
<path d="M0 0 C3.71 0.55 4.99 1.83 7.25 4.75 C10.3 8.44 13.31 10.72 17.5 12.99 C17.99 13.32 18.49 13.66 19 14 C19 14.66 19 15.32 19 16 C19.76 16.27 20.53 16.54 21.31 16.81 C23.92 17.97 25.07 18.99 27 21 C27.99 21.33 28.98 21.66 30 22 C30 22.99 30 23.98 30 25 C25.19 25.57 22.76 23.9 19 21 C18.67 20.34 18.34 19.68 18 19 C17.15 18.5 16.31 18.01 15.44 17.5 C14.63 17 13.83 16.51 13 16 C13 15.34 13 14.68 13 14 C12.32 13.84 11.64 13.67 10.94 13.5 C6.64 11.31 3.76 7.93 1 4 C0.3 1.74 0.3 1.74 0 0 Z " fill="#B2B3B4" transform="translate(68,182)"/>
<path d="M0 0 C0.66 0 1.32 0 2 0 C2.07 4.24 2.13 8.47 2.16 12.71 C2.18 14.15 2.2 15.59 2.23 17.03 C2.26 19.1 2.28 21.17 2.29 23.24 C2.31 24.49 2.32 25.73 2.34 27.02 C2.23 28 2.12 28.99 2 30 C1.01 30.66 0.02 31.32 -1 32 C-2.72 26.84 -2.18 21.4 -2.19 16 C-2.2 14.8 -2.21 13.6 -2.22 12.36 C-2.23 11.21 -2.23 10.06 -2.23 8.88 C-2.23 7.82 -2.24 6.77 -2.24 5.68 C-2 3 -2 3 0 0 Z " fill="#979899" transform="translate(317,244)"/>
<path d="M0 0 C0.66 0 1.32 0 2 0 C5.14 6.8 5.33 12.57 5 20 C4.01 19.67 3.02 19.34 2 19 C2 14.71 2 10.42 2 6 C1.34 5.67 0.68 5.34 0 5 C-1.94 6.88 -1.94 6.88 -3.31 8.56 C-5 10 -5 10 -7.19 10.31 C-11.53 11.38 -14.57 14.22 -18 17 C-18 16.01 -18 15.02 -18 14 C-17.04 13.6 -17.04 13.6 -16.06 13.19 C-13.67 12.11 -13.67 12.11 -13 9 C-10.57 7.5 -10.57 7.5 -7.56 6 C-3.11 3.81 -3.11 3.81 0 0 Z " fill="#A0A1A2" transform="translate(406,336)"/>
<path d="M0 0 C0.66 0 1.32 0 2 0 C2 10.89 2 21.78 2 33 C-1 31 -1 31 -1.68 28.43 C-2.07 24.3 -2.18 20.22 -2.19 16.06 C-2.2 15.29 -2.21 14.52 -2.22 13.72 C-2.24 8.76 -1.58 4.7 0 0 Z " fill="#979899" transform="translate(758,244)"/>
<path d="M0 0 C0.66 0 1.32 0 2 0 C2 11.55 2 23.1 2 35 C1.34 35 0.68 35 0 35 C-1.9 30.98 -2.24 27.81 -2.2 23.39 C-2.19 22.14 -2.18 20.89 -2.18 19.61 C-2.16 18.31 -2.14 17.02 -2.12 15.69 C-2.12 14.37 -2.11 13.06 -2.1 11.71 C-2.07 8.47 -2.04 5.24 -2 2 C-1.34 1.67 -0.68 1.34 0 1 C0 0.67 0 0.34 0 0 Z " fill="#979899" transform="translate(1020,241)"/>
<path d="M0 0 C0.99 0.33 1.98 0.66 3 1 C3 9.91 3 18.82 3 28 C1.68 28.33 0.36 28.66 -1 29 C-1.02 25.03 -1.04 21.06 -1.05 17.09 C-1.06 15.74 -1.07 14.39 -1.08 13.04 C-1.09 11.1 -1.09 9.16 -1.1 7.22 C-1.1 6.05 -1.11 4.89 -1.11 3.68 C-1 1 -1 1 0 0 Z " fill="#979899" transform="translate(1184,244)"/>
<path d="M0 0 C3.84 1.56 6.17 4.03 9 7 C9.76 7.72 10.53 8.44 11.31 9.19 C13 11 13 11 13 13 C13.99 13.33 14.98 13.66 16 14 C17.39 15.62 18.73 17.29 20 19 C19.01 19.33 18.02 19.66 17 20 C17 19.34 17 18.68 17 18 C14.52 17.01 14.52 17.01 12 16 C12 15.34 12 14.68 12 14 C11.44 13.77 10.89 13.55 10.31 13.31 C6.06 10.9 2.61 7.12 0 3 C0 2.01 0 1.02 0 0 Z " fill="#979899" transform="translate(707,328)"/>
<path d="M0 0 C1.32 0 2.64 0 4 0 C4.34 0.64 4.68 1.28 5.02 1.93 C5.47 2.76 5.92 3.59 6.38 4.44 C6.82 5.26 7.26 6.08 7.71 6.93 C8.83 9.13 8.83 9.13 11 10 C11 10.66 11 11.32 11 12 C13.48 12.99 13.48 12.99 16 14 C16 15.32 16 16.64 16 18 C15.34 18.33 14.68 18.66 14 19 C13.61 18.42 13.22 17.85 12.81 17.25 C11.05 14.9 11.05 14.9 8.56 13.06 C5.91 10.92 3.97 8.77 2 6 C2 5.34 2 4.68 2 4 C1.01 3.67 0.02 3.34 -1 3 C-0.67 2.01 -0.34 1.02 0 0 Z " fill="#ABACAD" transform="translate(762,281)"/>
<path d="M0 0 C5.86 8.78 3.91 26.93 2 37 C1.34 37.66 0.68 38.32 0 39 C0 26.13 0 13.26 0 0 Z " fill="#FCFDFF" transform="translate(1259,240)"/>
<path d="M0 0 C1.68 0.64 3.34 1.31 5 2 C5.97 2.39 6.94 2.78 7.94 3.19 C12.69 6 16.28 9.58 17.88 14.94 C17.92 15.62 17.96 16.3 18 17 C14.41 15.67 12.81 13.54 10.5 10.58 C8.24 8.2 5.55 6.8 2.67 5.27 C0.59 3.68 0.37 2.55 0 0 Z " fill="#A3A4A5" transform="translate(1217,179)"/>
<path d="M0 0 C4.43 0.43 6.39 3.19 9.25 6.38 C9.71 6.87 10.17 7.37 10.64 7.88 C14 11.61 14 11.61 14 15 C10.21 14.44 8.5 12.85 5.88 10.12 C5.19 9.43 4.51 8.73 3.8 8.01 C0 3.77 0 3.77 0 0 Z " fill="#A5A6A7" transform="translate(267,329)"/>
<path d="M0 0 C3.62 -0.09 7.25 -0.14 10.88 -0.19 C12.42 -0.23 12.42 -0.23 14 -0.26 C14.99 -0.27 15.98 -0.28 16.99 -0.29 C17.9 -0.31 18.81 -0.32 19.75 -0.34 C20.49 -0.23 21.24 -0.12 22 0 C22.66 0.99 23.32 1.98 24 3 C16.08 3 8.16 3 0 3 C0 2.01 0 1.02 0 0 Z " fill="#979899" transform="translate(147,97)"/>
<path d="M0 0 C4.25 0.3 6.22 3.02 9 6 C9.76 6.7 10.53 7.4 11.31 8.12 C13 10 13 10 13 13 C10.22 12.62 8.41 12.33 6.19 10.56 C5 9 5 9 5 7 C4.2 6.75 3.39 6.5 2.56 6.25 C0 5 0 5 -0.88 2.94 C-0.92 2.3 -0.96 1.66 -1 1 C-0.67 0.67 -0.34 0.34 0 0 Z " fill="#A8A9AB" transform="translate(1164,218)"/>
<path d="M0 0 C0.66 0.66 1.32 1.32 2 2 C0.24 11.01 -9.01 15.93 -16 21 C-16 18 -16 18 -14.17 15.88 C-13.37 15.11 -12.57 14.35 -11.75 13.56 C-10.96 12.8 -10.17 12.04 -9.36 11.25 C-8.58 10.51 -7.8 9.77 -7 9 C-4.07 6.17 -1.98 3.57 0 0 Z " fill="#98999A" transform="translate(244,318)"/>
<path d="M0 0 C0.99 0 1.98 0 3 0 C4.35 1.99 5.68 3.99 7 6 C7.89 6.7 8.77 7.4 9.69 8.12 C12.13 10.11 12.67 10.94 13 14 C10.21 13.92 8.5 13.48 6.47 11.52 C5.44 10.29 4.43 9.04 3.43 7.79 C1.76 5.7 -0.08 3.85 -2 2 C-1.34 1.34 -0.68 0.68 0 0 Z " fill="#A6A7A8" transform="translate(1102,286)"/>
<path d="M0 0 C0.66 0 1.32 0 2 0 C2 5.94 2 11.88 2 18 C3.65 17.67 5.3 17.34 7 17 C7 17.99 7 18.98 7 20 C6.38 20.29 5.76 20.58 5.12 20.88 C2.87 21.94 2.87 21.94 1 24 C-1.61 20.09 -1.22 16.54 -1 12 C-0.67 11.67 -0.34 11.34 0 11 C0.15 8.27 -0.01 5.94 -0.56 3.25 C-0.71 2.51 -0.85 1.76 -1 1 C-0.67 0.67 -0.34 0.34 0 0 Z " fill="#979899" transform="translate(1053,162)"/>
<path d="M0 0 C2.23 -0.05 4.46 -0.09 6.69 -0.12 C8.55 -0.16 8.55 -0.16 10.45 -0.2 C13.81 -0.01 16 0.54 19 2 C17 4 17 4 15.12 4.23 C14.38 4.22 13.63 4.21 12.87 4.2 C12.06 4.19 11.26 4.18 10.43 4.18 C9.58 4.16 8.74 4.14 7.88 4.12 C6.6 4.11 6.6 4.11 5.3 4.1 C3.2 4.07 1.1 4.04 -1 4 C-0.67 2.68 -0.34 1.36 0 0 Z " fill="#979899" transform="translate(171,34)"/>
<path d="M0 0 C0.66 0 1.32 0 2 0 C4.19 7.27 3.34 15.61 2 23 C1.01 22.34 0.02 21.68 -1 21 C-1.36 19.06 -1.36 19.06 -1.33 16.72 C-1.32 15.88 -1.32 15.04 -1.31 14.17 C-1.29 13.29 -1.27 12.41 -1.25 11.5 C-1.24 10.62 -1.24 9.74 -1.23 8.83 C-1.15 2.31 -1.15 2.31 0 0 Z " fill="#979899" transform="translate(1092,249)"/>
<path d="M0 0 C0 6.6 0 13.2 0 20 C-3 17 -3 17 -3.36 14.91 C-3.27 10.52 -3.06 6.99 -1 3 C-4.3 3.33 -7.6 3.66 -11 4 C-7.32 -0.71 -6.78 0 0 0 Z " fill="#979899" transform="translate(852,337)"/>
<path d="M0 0 C3.1 -0.09 6.21 -0.14 9.31 -0.19 C10.19 -0.21 11.07 -0.24 11.98 -0.26 C13.25 -0.28 13.25 -0.28 14.55 -0.29 C15.72 -0.32 15.72 -0.32 16.92 -0.34 C19 0 19 0 22 3 C14.74 3 7.48 3 0 3 C0 2.01 0 1.02 0 0 Z " fill="#979899" transform="translate(96,359)"/>
<path d="M0 0 C4.71 1.21 6.34 3.49 8.79 7.44 C10.01 9.31 10.01 9.31 13 10 C13 11.32 13 12.64 13 14 C9.76 13.44 8.07 12.59 6 10 C6 9.34 6 8.68 6 8 C5.4 7.71 4.8 7.42 4.19 7.12 C2 6 2 6 -1 4 C-0.67 2.68 -0.34 1.36 0 0 Z M3 2 C4 4 4 4 4 4 Z " fill="#9D9E9F" transform="translate(122,136)"/>
<path d="M0 0 C4.95 0 9.9 0 15 0 C15 0.66 15 1.32 15 2 C15.99 2.33 16.98 2.66 18 3 C13.65 3.84 9.56 4.11 5.12 4.06 C3.97 4.05 2.82 4.04 1.63 4.04 C0.76 4.02 -0.1 4.01 -1 4 C-0.67 2.68 -0.34 1.36 0 0 Z " fill="#979899" transform="translate(124,34)"/>
<path d="M0 0 C1.58 -0.01 1.58 -0.01 3.2 -0.01 C8.57 -0 13.71 0.18 19 1.12 C19 1.45 19 1.79 19 2.12 C6.25 2.86 -6.27 3.43 -19 2.12 C-19 1.8 -19 1.46 -19 1.12 C-12.66 -0.01 -6.43 -0.02 0 0 Z " fill="#FCFDFF" transform="translate(1017,17.875)"/>
<path d="M0 0 C1.75 0.12 1.75 0.12 4 1 C4.6 1.91 5.2 2.81 5.81 3.75 C8.46 7.69 11.05 9.42 15 12 C14.67 12.99 14.34 13.98 14 15 C11.51 13.8 9.32 12.55 7 11 C7 10.34 7 9.68 7 9 C6.4 8.75 5.8 8.5 5.19 8.25 C2.66 6.81 1.5 5.47 0 3 C0 2.01 0 1.02 0 0 Z " fill="#A2A3A4" transform="translate(1043,324)"/>
<path d="M0 0 C0.99 0 1.98 0 3 0 C3.06 3.1 3.09 6.21 3.12 9.31 C3.15 10.63 3.15 10.63 3.18 11.98 C3.18 12.83 3.19 13.68 3.2 14.55 C3.21 15.72 3.21 15.72 3.23 16.92 C3 19 3 19 1 22 C0 21 0 21 -0.11 18.96 C-0.11 18.08 -0.1 17.21 -0.1 16.31 C-0.09 15.36 -0.09 14.42 -0.09 13.45 C-0.08 12.45 -0.07 11.46 -0.06 10.44 C-0.06 9.44 -0.05 8.44 -0.05 7.42 C-0.04 4.94 -0.02 2.47 0 0 Z " fill="#979899" transform="translate(849,249)"/>
<path d="M0 0 C3.1 -0.09 6.21 -0.14 9.31 -0.19 C10.19 -0.21 11.07 -0.24 11.98 -0.26 C13.25 -0.28 13.25 -0.28 14.55 -0.29 C15.72 -0.32 15.72 -0.32 16.92 -0.34 C19 0 19 0 22 3 C14.74 3 7.48 3 0 3 C0 2.01 0 1.02 0 0 Z " fill="#979899" transform="translate(127,296)"/>
<path d="M0 0 C0.99 0.33 1.98 0.66 3 1 C3.05 3.58 3.09 6.17 3.12 8.75 C3.14 9.48 3.16 10.21 3.18 10.96 C3.21 14.8 3.17 17.75 1 21 C-1.45 17.32 -1.24 15.44 -1.19 11.06 C-1.18 9.84 -1.17 8.61 -1.17 7.35 C-1.03 4.69 -0.79 2.52 0 0 Z " fill="#979899" transform="translate(408,249)"/>
<path d="M0 0 C0.66 0 1.32 0 2 0 C3.31 3.92 2.93 7.5 2.69 11.56 C2.63 12.73 2.63 12.73 2.58 13.93 C2.24 19.76 2.24 19.76 0 22 C-1.04 17.73 -1.13 13.69 -1.12 9.31 C-1.13 8.64 -1.13 7.96 -1.14 7.26 C-1.13 2.25 -1.13 2.25 0 0 Z " fill="#979899" transform="translate(50,104)"/>
<path d="M0 0 C0.76 -0.01 1.52 -0.03 2.31 -0.04 C4.8 0.21 6.41 0.95 8.56 2.19 C6.56 4.19 6.56 4.19 3.3 4.38 C2.03 4.36 0.75 4.34 -0.56 4.31 C-2.48 4.29 -2.48 4.29 -4.45 4.26 C-5.93 4.22 -5.93 4.22 -7.44 4.19 C-7.44 3.2 -7.44 2.21 -7.44 1.19 C-4.67 0.26 -2.87 0.02 0 0 Z " fill="#979899" transform="translate(1167.4375,154.8125)"/>
<path d="M0 0 C5.04 1.29 7.5 3.21 11 7 C11.99 7.66 12.98 8.32 14 9 C13.34 10.32 12.68 11.64 12 13 C1.34 4.02 1.34 4.02 0 0 Z " fill="#9C9D9E" transform="translate(324,287)"/>
<path d="M0 0 C-1.36 3.07 -2.9 5.12 -5.31 7.44 C-5.94 8.04 -6.56 8.65 -7.2 9.28 C-7.8 9.85 -8.39 10.41 -9 11 C-12.46 14.38 -15.58 17.85 -18.57 21.64 C-20 23 -20 23 -23 23 C-21.68 19.99 -20.4 18.26 -17.81 16.25 C-14.36 13.42 -11.53 10.29 -8.64 6.9 C-2.7 0 -2.7 0 0 0 Z " fill="#E1E2E4" transform="translate(589,193)"/>
<path d="M0 0 C3.5 1 3.5 1 6 2 C4 4 4 4 0.52 4.2 C-0.86 4.18 -2.24 4.16 -3.62 4.12 C-4.33 4.12 -5.04 4.11 -5.77 4.1 C-7.51 4.07 -9.26 4.04 -11 4 C-11 3.34 -11 2.68 -11 2 C-7.27 -0.48 -4.31 -0.42 0 0 Z " fill="#98999A" transform="translate(1115,155)"/>
<path d="M0 0 C0.66 0 1.32 0 2 0 C2 5.94 2 11.88 2 18 C1.01 18 0.02 18 -1 18 C-1.03 15.19 -1.05 12.38 -1.06 9.56 C-1.07 8.76 -1.08 7.96 -1.09 7.13 C-1.1 5.09 -1.05 3.04 -1 1 C-0.67 0.67 -0.34 0.34 0 0 Z " fill="#979899" transform="translate(50,135)"/>
<path d="M0 0 C2.44 -0.08 4.87 -0.14 7.31 -0.19 C8.35 -0.23 8.35 -0.23 9.4 -0.26 C11.43 -0.29 11.43 -0.29 15 0 C15.99 0.99 16.98 1.98 18 3 C11.73 3 5.46 3 -1 3 C-0.67 2.01 -0.34 1.02 0 0 Z " fill="#979899" transform="translate(1101,359)"/>
<path d="M0 0 C0.66 0.66 1.32 1.32 2 2 C-2.21 7.27 -5.91 11.02 -12 14 C-12 12.68 -12 11.36 -12 10 C-10.39 8.44 -10.39 8.44 -8.25 7 C-5.2 4.87 -2.54 2.75 0 0 Z " fill="#A6A7A8" transform="translate(1176,286)"/>
<path d="M0 0 C0.33 0.99 0.66 1.98 1 3 C-1.7 7.37 -5.82 11.1 -10 14 C-10.66 14 -11.32 14 -12 14 C-11.75 10.36 -11.15 9.15 -8.5 6.54 C-7.49 5.77 -6.48 4.99 -5.44 4.19 C-4.43 3.4 -3.41 2.61 -2.37 1.79 C-1.59 1.2 -0.81 0.61 0 0 Z " fill="#ABACAD" transform="translate(841,286)"/>
<path d="M0 0 C0 4.17 -2.24 6.13 -5 9 C-9.53 13 -9.53 13 -12 13 C-12 9 -12 9 -10.5 7.37 C-9.86 6.87 -9.22 6.38 -8.56 5.88 C-5.83 3.81 -5.83 3.81 -4 1 C-1.94 0.38 -1.94 0.38 0 0 Z " fill="#ADAEAF" transform="translate(401,286)"/>
<path d="M0 0 C1.5 0.01 1.5 0.01 3.04 0.03 C3.81 0.04 4.58 0.05 5.38 0.06 C5.7 1.05 6.04 2.04 6.38 3.06 C1.61 4.02 -2.79 4.15 -7.62 4.06 C-7.62 3.07 -7.62 2.08 -7.62 1.06 C-4.98 -0.26 -2.95 -0.03 0 0 Z " fill="#979899" transform="translate(319.625,154.9375)"/>
<path d="M0 0 C5.28 0 10.56 0 16 0 C16.33 0.66 16.66 1.32 17 2 C13.93 3.53 10.73 3.1 7.38 3.06 C6.67 3.06 5.96 3.05 5.23 3.05 C3.49 3.04 1.74 3.02 0 3 C0 2.01 0 1.02 0 0 Z " fill="#979899" transform="translate(166,359)"/>
<path d="M0 0 C1.05 -0.01 2.1 -0.03 3.19 -0.04 C6 0.19 6 0.19 9 2.19 C5.69 3.84 2.01 3.29 -1.62 3.25 C-2.43 3.25 -3.23 3.24 -4.05 3.24 C-6.04 3.22 -8.02 3.21 -10 3.19 C-8.05 -0.72 -3.88 0.02 0 0 Z " fill="#979899" transform="translate(1171,358.8125)"/>
<path d="M0 0 C3.63 0 7.26 0 11 0 C11.33 0.99 11.66 1.98 12 3 C9.24 4.38 6.95 4.1 3.88 4.06 C2.78 4.05 1.68 4.04 0.55 4.04 C-0.71 4.02 -0.71 4.02 -2 4 C-1.34 2.68 -0.68 1.36 0 0 Z " fill="#979899" transform="translate(360,155)"/>
<path d="M0 0 C0.66 0.66 1.32 1.32 2 2 C1.53 2.39 1.06 2.77 0.57 3.17 C-2.72 5.93 -5.45 8.52 -8 12 C-8.66 12 -9.32 12 -10 12 C-8.08 4.17 -8.08 4.17 -5 2 C-2.31 0.81 -2.31 0.81 0 0 Z " fill="#AFB0B1" transform="translate(971,35)"/>
<path d="M0 0 C0.99 0.33 1.98 0.66 3 1 C-1.04 5.81 -5.04 10.13 -10 14 C-10 10 -10 10 -8.69 8.25 C-7 7 -7 7 -4 7 C-3.71 6.4 -3.42 5.8 -3.12 5.19 C-2 3 -2 3 0 0 Z " fill="#979899" transform="translate(777,218)"/>
<path d="M0 0 C0.91 0.1 1.82 0.2 2.76 0.31 C3.46 0.39 4.16 0.48 4.88 0.56 C4.88 1.22 4.88 1.88 4.88 2.56 C5.53 2.89 6.2 3.22 6.88 3.56 C2.25 3.56 -2.37 3.56 -7.12 3.56 C-7.12 2.57 -7.12 1.58 -7.12 0.56 C-4.5 -0.75 -2.89 -0.33 0 0 Z " fill="#979899" transform="translate(761.125,155.4375)"/>
<path d="M0 0 C0.33 0.99 0.66 1.98 1 3 C-3 7 -7 11 -11 15 C-11.66 14.67 -12.32 14.34 -13 14 C-12.67 13.01 -12.34 12.02 -12 11 C-11.34 11 -10.68 11 -10 11 C-9.53 10.18 -9.05 9.35 -8.56 8.5 C-8.05 7.68 -7.53 6.85 -7 6 C-6.01 6 -5.02 6 -4 6 C-3.71 5.2 -3.42 4.39 -3.12 3.56 C-2 1 -2 1 0 0 Z " fill="#979899" transform="translate(1234,324)"/>
<path d="M0 0 C0.33 0.99 0.66 1.98 1 3 C-2.63 6.63 -6.26 10.26 -10 14 C-10.66 13.34 -11.32 12.68 -12 12 C-8.32 7.47 -4.59 3.61 0 0 Z " fill="#979899" transform="translate(337,218)"/>
<path d="M0 0 C0.98 0.07 1.96 0.13 2.97 0.2 C5.5 0.75 5.5 0.75 7.5 3.75 C2.88 3.75 -1.74 3.75 -6.5 3.75 C-6.83 2.76 -7.16 1.77 -7.5 0.75 C-4.82 -0.59 -2.97 -0.23 0 0 Z " fill="#979899" transform="translate(759.5,358.25)"/>
<path d="M0 0 C1.32 0 2.64 0 4 0 C3.89 2.13 3.76 4.25 3.62 6.38 C3.52 8.15 3.52 8.15 3.41 9.96 C3 13 3 13 1 15 C-0.1 11.71 -0.1 9.26 -0.06 5.81 C-0.05 4.73 -0.04 3.64 -0.04 2.52 C-0.02 1.69 -0.01 0.86 0 0 Z " fill="#9B9C9D" transform="translate(941,79)"/>
<path d="M0 0 C0.88 0.07 1.75 0.13 2.65 0.2 C5.06 0.75 5.06 0.75 8.06 3.75 C3.11 3.75 -1.84 3.75 -6.94 3.75 C-6.94 2.76 -6.94 1.77 -6.94 0.75 C-4.38 -0.53 -2.83 -0.25 0 0 Z " fill="#979899" transform="translate(317.9375,358.25)"/>
<path d="M0 0 C0.05 2.29 0.09 4.58 0.12 6.88 C0.15 8.15 0.17 9.43 0.2 10.74 C0 14 0 14 -2 16 C-3.44 13.12 -3.09 10.58 -3.06 7.38 C-3.05 6.19 -3.04 5 -3.04 3.77 C-3.02 2.86 -3.01 1.94 -3 1 C-1 0 -1 0 0 0 Z " fill="#979899" transform="translate(183,259)"/>
<path d="M0 0 C-0.99 1.49 -0.99 1.49 -2 3 C-4.82 3.29 -4.82 3.29 -8.12 3.19 C-9.77 3.15 -9.77 3.15 -11.45 3.11 C-12.71 3.05 -12.71 3.05 -14 3 C-13.67 2.01 -13.34 1.02 -13 0 C-4.57 -1.29 -4.57 -1.29 0 0 Z " fill="#979899" transform="translate(813,156)"/>
<path d="M0 0 C2 1.38 2 1.38 4 3 C4 3.66 4 4.32 4 5 C5.32 5.66 6.64 6.32 8 7 C8 7.66 8 8.32 8 9 C5.81 9.31 5.81 9.31 3 9 C0.19 6.69 0.19 6.69 -2 4 C-2 3.01 -2 2.02 -2 1 C-1.34 0.67 -0.68 0.34 0 0 Z " fill="#A1A2A3" transform="translate(399,169)"/>
<path d="M0 0 C0.66 0 1.32 0 2 0 C2.77 3.39 3.38 6.53 3 10 C2.01 10.66 1.02 11.32 0 12 C-1 11 -1 11 -1.13 9 C-1.13 8.2 -1.13 7.39 -1.12 6.56 C-1.13 5.76 -1.13 4.96 -1.13 4.13 C-1 2 -1 2 0 0 Z " fill="#999A9B" transform="translate(1024,283)"/>
<path d="M0 0 C0.99 0.33 1.98 0.66 3 1 C0.73 3.36 -1.61 5.54 -4.12 7.62 C-6.92 9.86 -6.92 9.86 -9 12 C-9 8 -9 8 -7.54 6.11 C-6.91 5.52 -6.28 4.92 -5.62 4.31 C-5 3.71 -4.37 3.11 -3.73 2.49 C-2 1 -2 1 0 0 Z " fill="#9E9FA1" transform="translate(83,56)"/>
<path d="M0 0 C1.46 -0.03 2.92 -0.05 4.38 -0.06 C5.19 -0.07 6 -0.09 6.84 -0.1 C9 0 9 0 11 1 C11 1.66 11 2.32 11 3 C8.04 4.48 5.26 4.06 2 4 C1.34 2.68 0.68 1.36 0 0 Z " fill="#979899" transform="translate(176,102)"/>
<path d="M0 0 C0.66 0.33 1.32 0.66 2 1 C2 4.96 2 8.92 2 13 C1.01 12.67 0.02 12.34 -1 12 C-1.03 10.19 -1.05 8.38 -1.06 6.56 C-1.07 5.55 -1.09 4.54 -1.1 3.5 C-1 1 -1 1 0 0 Z " fill="#979899" transform="translate(409,343)"/>
<path d="M0 0 C0.66 0.33 1.32 0.66 2 1 C2.12 7.62 2.12 7.62 1 11 C0.01 10.67 -0.98 10.34 -2 10 C-2.2 3.95 -2.2 3.95 -2 2 C-1.34 1.34 -0.68 0.68 0 0 Z " fill="#979899" transform="translate(1025,223)"/>
<path d="M0 0 C-1.38 3.21 -2.92 5.05 -5.62 7.25 C-6.57 8.03 -6.57 8.03 -7.54 8.83 C-8.02 9.21 -8.5 9.6 -9 10 C-9.66 9.34 -10.32 8.68 -11 8 C-9.88 6.85 -8.75 5.71 -7.62 4.56 C-7 3.92 -6.37 3.29 -5.73 2.63 C-3.75 0.76 -2.74 0 0 0 Z " fill="#979899" transform="translate(723,174)"/>
<path d="M0 0 C-3.31 2.21 -4.34 2.22 -8.19 2.12 C-9.09 2.11 -9.99 2.09 -10.92 2.07 C-11.61 2.05 -12.29 2.02 -13 2 C-13 1.34 -13 0.68 -13 0 C-11.59 -0.39 -10.17 -0.76 -8.75 -1.12 C-7.96 -1.33 -7.17 -1.54 -6.36 -1.76 C-3.58 -2.04 -2.34 -1.45 0 0 Z " fill="#979899" transform="translate(813,360)"/>
<path d="M0 0 C0.99 0.33 1.98 0.66 3 1 C1.33 2.67 -0.33 4.33 -2 6 C-2.56 6.6 -3.11 7.2 -3.69 7.81 C-5 9 -5 9 -7 9 C-6.76 5.74 -5.48 4.27 -3.12 2.19 C-2.09 1.47 -1.06 0.74 0 0 Z " fill="#A3A4A5" transform="translate(279,175)"/>
<path d="M0 0 C3.38 -0.12 3.38 -0.12 7 0 C7.66 0.66 8.32 1.32 9 2 C7 4 7 4 5.05 4.2 C3.04 4.13 1.02 4.07 -1 4 C-0.67 2.68 -0.34 1.36 0 0 Z " fill="#979899" transform="translate(1182,160)"/>
<path d="M0 0 C0.5 0.37 0.99 0.74 1.5 1.12 C-1.7 3.26 -2.52 3.36 -6.19 3.25 C-7.4 3.22 -7.4 3.22 -8.64 3.2 C-9.56 3.16 -9.56 3.16 -10.5 3.12 C-10.5 2.46 -10.5 1.81 -10.5 1.12 C-3.12 -1.09 -3.12 -1.09 0 0 Z " fill="#979899" transform="translate(369.5,358.875)"/>
<path d="M0 0 C5.75 -0.12 5.75 -0.12 8 1 C8 1.99 8 2.98 8 4 C5.03 4 2.06 4 -1 4 C-0.67 2.68 -0.34 1.36 0 0 Z " fill="#979899" transform="translate(815,213)"/>
<path d="M0 0 C1.98 0 3.96 0 6 0 C6.33 0.99 6.66 1.98 7 3 C4.04 4.48 1.26 4.06 -2 4 C-1.34 2.68 -0.68 1.36 0 0 Z " fill="#979899" transform="translate(1152,213)"/>
<path d="M0 0 C0.33 0.66 0.66 1.32 1 2 C-2.88 3.19 -5.92 4 -10 4 C-9.67 3.01 -9.34 2.02 -9 1 C-6.04 -0.48 -3.26 -0.06 0 0 Z " fill="#979899" transform="translate(1130,213)"/>
<path d="M0 0 C1.81 0.27 1.81 0.27 4 0.81 C5.08 1.07 5.08 1.07 6.19 1.33 C8 2 8 2 9 4 C4.55 4.5 4.55 4.5 0 5 C-0.33 3.68 -0.66 2.36 -1 1 C-0.67 0.67 -0.34 0.34 0 0 Z " fill="#979899" transform="translate(80,353)"/>
<path d="M0 0 C1.65 0.11 3.29 0.24 4.94 0.38 C5.85 0.44 6.77 0.51 7.71 0.59 C8.85 0.79 8.85 0.79 10 1 C10.33 1.66 10.66 2.32 11 3 C3.38 4.25 3.38 4.25 0 2 C0 1.34 0 0.68 0 0 Z " fill="#979899" transform="translate(782,301)"/>
<path d="M0 0 C2.64 0 5.28 0 8 0 C8.33 0.99 8.66 1.98 9 3 C5.19 4.47 2.71 3.43 -1 2 C-0.67 1.34 -0.34 0.68 0 0 Z " fill="#979899" transform="translate(212,44)"/>
<path d="M0 0 C2.97 0 5.94 0 9 0 C9 0.99 9 1.98 9 3 C5.19 4.47 2.71 3.43 -1 2 C-0.67 1.34 -0.34 0.68 0 0 Z " fill="#979899" transform="translate(197,39)"/>
<path d="M0 0 C2.97 0.33 5.94 0.66 9 1 C9 1.66 9 2.32 9 3 C5.3 3.95 2.7 3.95 -1 3 C-0.67 2.01 -0.34 1.02 0 0 Z " fill="#979899" transform="translate(110,291)"/>
<path d="M0 0 C0.99 0 1.98 0 3 0 C2.25 7.75 2.25 7.75 0 10 C-1.12 2.25 -1.12 2.25 0 0 Z " fill="#979899" transform="translate(1252,288)"/>
<path d="M0 0 C6.75 0.75 6.75 0.75 9 3 C5.7 3.33 2.4 3.66 -1 4 C-0.67 2.68 -0.34 1.36 0 0 Z " fill="#979899" transform="translate(786,213)"/>
<path d="M0 0 C6.6 0.6 6.6 0.6 9 3 C5.7 3.33 2.4 3.66 -1 4 C-1 1 -1 1 0 0 Z " fill="#979899" transform="translate(345,213)"/>
<path d="M0 0 C2.64 0 5.28 0 8 0 C8.33 1.32 8.66 2.64 9 4 C6.03 3.67 3.06 3.34 0 3 C0 2.01 0 1.02 0 0 Z " fill="#9A9B9C" transform="translate(1118,301)"/>
<path d="M0 0 C0.66 0 1.32 0 2 0 C1.67 3.63 1.34 7.26 1 11 C0.67 10.34 0.34 9.68 0 9 C-0.66 9 -1.32 9 -2 9 C-2.25 3.38 -2.25 3.38 0 0 Z " fill="#979899" transform="translate(1010,88)"/>
<path d="M0 0 C0.99 0.33 1.98 0.66 3 1 C-1.62 6.88 -1.62 6.88 -5 8 C-4.46 4.2 -2.8 2.53 0 0 Z " fill="#979899" transform="translate(253,306)"/>
<path d="M0 0 C2.31 0.33 4.62 0.66 7 1 C6.01 2.49 6.01 2.49 5 4 C1.88 4.19 1.88 4.19 -1 4 C-0.67 2.68 -0.34 1.36 0 0 Z " fill="#979899" transform="translate(158,291)"/>
<path d="M0 0 C1.28 0.1 2.56 0.21 3.88 0.31 C4.95 0.4 4.95 0.4 6.05 0.49 C8 1 8 1 10 4 C6.37 3.67 2.74 3.34 -1 3 C-0.67 2.01 -0.34 1.02 0 0 Z " fill="#979899" transform="translate(1026,77)"/>
<path d="M0 0 C5.28 0 10.56 0 16 0 C16 0.33 16 0.66 16 1 C10.72 1 5.44 1 0 1 C0 0.67 0 0.34 0 0 Z " fill="#979899" transform="translate(135,365)"/>
<path d="M0 0 C0 0.99 0 1.98 0 3 C-2.31 4.32 -4.62 5.64 -7 7 C-5.55 3.17 -3.57 1.88 0 0 Z " fill="#FCFDFF" transform="translate(398,346)"/>
<path d="M0 0 C0.33 0.66 0.66 1.32 1 2 C0.01 2.99 -0.98 3.98 -2 5 C-2.66 4.67 -3.32 4.34 -4 4 C-2.68 2.68 -1.36 1.36 0 0 Z " fill="#FCFDFF" transform="translate(650,224)"/>
<path d="M0 0 C0.33 0.66 0.66 1.32 1 2 C0.01 2.99 -0.98 3.98 -2 5 C-2.66 4.67 -3.32 4.34 -4 4 C-2.68 2.68 -1.36 1.36 0 0 Z " fill="#FCFDFF" transform="translate(708,166)"/>
<path d="M0 0 C0 0.99 0 1.98 0 3 C-1.98 3.99 -1.98 3.99 -4 5 C-2.68 3.35 -1.36 1.7 0 0 Z " fill="#FCFDFF" transform="translate(645,229)"/>
<path d="M0 0 C0 0.99 0 1.98 0 3 C-1.98 3.99 -1.98 3.99 -4 5 C-2.68 3.35 -1.36 1.7 0 0 Z " fill="#FCFDFF" transform="translate(655,219)"/>
<path d="M0 0 C0 0.99 0 1.98 0 3 C-1.98 3.99 -1.98 3.99 -4 5 C-2.68 3.35 -1.36 1.7 0 0 Z " fill="#FCFDFF" transform="translate(684,190)"/>
<path d="M0 0 C0.33 0.66 0.66 1.32 1 2 C0.67 2.66 0.34 3.32 0 4 C-0.99 3.67 -1.98 3.34 -3 3 C-2.01 2.01 -1.02 1.02 0 0 Z " fill="#FCFDFF" transform="translate(640,234)"/>
<path d="M0 0 C0 0.99 0 1.98 0 3 C-0.99 3 -1.98 3 -3 3 C-2.01 2.01 -1.02 1.02 0 0 Z " fill="#FCFDFF" transform="translate(659,215)"/>
<path d="M0 0 C0 0.99 0 1.98 0 3 C-0.99 3 -1.98 3 -3 3 C-2.01 2.01 -1.02 1.02 0 0 Z " fill="#FCFDFF" transform="translate(688,186)"/>
<path d="M0 0 C0 0.99 0 1.98 0 3 C-0.99 3 -1.98 3 -3 3 C-2.01 2.01 -1.02 1.02 0 0 Z " fill="#FCFDFF" transform="translate(693,181)"/>
<path d="M0 0 C0 0.99 0 1.98 0 3 C-0.99 3 -1.98 3 -3 3 C-2.01 2.01 -1.02 1.02 0 0 Z " fill="#FCFDFF" transform="translate(698,176)"/>
<path d="M0 0 C0 0.99 0 1.98 0 3 C-0.99 3 -1.98 3 -3 3 C-2.01 2.01 -1.02 1.02 0 0 Z " fill="#FCFDFF" transform="translate(703,171)"/>
<path d="M0 0 C0 0.99 0 1.98 0 3 C-0.66 2.67 -1.32 2.34 -2 2 C-1.34 1.34 -0.68 0.68 0 0 Z " fill="#FCFDFF" transform="translate(237,332)"/>
<path d="M0 0 C0.66 0.33 1.32 0.66 2 1 C1.01 1 0.02 1 -1 1 C-0.67 0.67 -0.34 0.34 0 0 Z " fill="#FCFDFF" transform="translate(778,222)"/>
<path d="M0 0 C0 3 0 3 0 3 Z " fill="#FCFDFF" transform="translate(674,200)"/>
<path d="M0 0 C0 3 0 3 0 3 Z " fill="#FCFDFF" transform="translate(679,195)"/>
<path d="M0 0 C2 1 2 1 2 1 Z " fill="#FCFDFF" transform="translate(337,222)"/>
<path d="M0 0 C2 1 2 1 2 1 Z " fill="#FCFDFF" transform="translate(675,199)"/>
<path d="" fill="#FCFDFF" transform="translate(0,0)"/>
<path d="" fill="#FCFDFF" transform="translate(0,0)"/>
<path d="" fill="#FCFDFF" transform="translate(0,0)"/>
<path d="" fill="#FCFDFF" transform="translate(0,0)"/>
<path d="" fill="#FCFDFF" transform="translate(0,0)"/>
<path d="" fill="#FCFDFF" transform="translate(0,0)"/>
<path d="" fill="#FCFDFF" transform="translate(0,0)"/>
<path d="" fill="#FCFDFF" transform="translate(0,0)"/>
<path d="" fill="#FCFDFF" transform="translate(0,0)"/>
<path d="" fill="#FCFDFF" transform="translate(0,0)"/>
<path d="" fill="#FCFDFF" transform="translate(0,0)"/>
<path d="" fill="#FCFDFF" transform="translate(0,0)"/>
<path d="" fill="#FCFDFF" transform="translate(0,0)"/>
<path d="" fill="#FCFDFF" transform="translate(0,0)"/>
<path d="" fill="#FCFDFF" transform="translate(0,0)"/>
<path d="" fill="#979899" transform="translate(0,0)"/>
<path d="" fill="#FCFDFF" transform="translate(0,0)"/>
<path d="" fill="#979899" transform="translate(0,0)"/>
<path d="" fill="#979899" transform="translate(0,0)"/>
<path d="" fill="#FCFDFF" transform="translate(0,0)"/>
<path d="" fill="#FCFDFF" transform="translate(0,0)"/>
<path d="" fill="#FCFDFF" transform="translate(0,0)"/>
<path d="" fill="#FCFDFF" transform="translate(0,0)"/>
<path d="" fill="#FCFDFF" transform="translate(0,0)"/>
<path d="" fill="#FCFDFF" transform="translate(0,0)"/>
<path d="" fill="#FCFDFF" transform="translate(0,0)"/>
<path d="" fill="#FCFDFF" transform="translate(0,0)"/>
<path d="" fill="#FCFDFF" transform="translate(0,0)"/>
<path d="" fill="#FCFDFF" transform="translate(0,0)"/>
<path d="" fill="#FCFDFF" transform="translate(0,0)"/>
<path d="" fill="#FCFDFF" transform="translate(0,0)"/>
<path d="" fill="#979899" transform="translate(0,0)"/>
<path d="" fill="#FCFDFF" transform="translate(0,0)"/>
<path d="" fill="#FCFDFF" transform="translate(0,0)"/>
<path d="" fill="#FCFDFF" transform="translate(0,0)"/>
<path d="" fill="#FCFDFF" transform="translate(0,0)"/>
<path d="" fill="#FCFDFF" transform="translate(0,0)"/>
<path d="" fill="#FCFDFF" transform="translate(0,0)"/>
<path d="" fill="#FCFDFF" transform="translate(0,0)"/>
<path d="" fill="#FCFDFF" transform="translate(0,0)"/>
<path d="" fill="#FCFDFF" transform="translate(0,0)"/>
<path d="" fill="#FCFDFF" transform="translate(0,0)"/>
<path d="" fill="#FCFDFF" transform="translate(0,0)"/>
<path d="" fill="#FCFDFF" transform="translate(0,0)"/>
<path d="" fill="#FCFDFF" transform="translate(0,0)"/>
<path d="" fill="#FCFDFF" transform="translate(0,0)"/>
<path d="" fill="#FCFDFF" transform="translate(0,0)"/>
<path d="" fill="#FCFDFF" transform="translate(0,0)"/>
<path d="" fill="#FCFDFF" transform="translate(0,0)"/>
</svg>
